<svg width="122" height="34" viewBox="0 0 122 34" fill="none" xmlns="http://www.w3.org/2000/svg">
<path d="M23.647 14.1636C22.6099 13.9612 21.6101 14.6235 21.4124 15.6387C21.2176 16.6567 21.8994 17.6487 22.9365 17.8512C23.9707 18.0536 24.9735 17.3913 25.1711 16.3762C25.366 15.361 24.6841 14.3661 23.647 14.1636ZM23.1686 16.648C22.7904 16.5757 22.5411 16.2287 22.607 15.8758C22.6758 15.523 23.0368 15.2974 23.4121 15.3726C23.7902 15.4478 24.0395 15.7919 23.9736 16.1448C23.9077 16.4947 23.5467 16.7203 23.1686 16.648Z" fill="#EB573F"/>
<path d="M12.5943 16.9546C9.35404 14.7854 7.62077 12.2461 6.73837 10.4992C6.68681 10.3951 6.6381 10.2939 6.5894 10.1955C6.20264 10.5397 5.83879 10.907 5.50073 11.2974C6.57507 13.3798 8.46878 15.9568 11.7892 18.178C15.1813 20.4483 17.5907 22.9443 18.9515 25.5993C19.513 26.6926 19.8769 27.7974 20.043 28.8877C20.5014 28.6072 20.9397 28.3006 21.3523 27.9622C21.1288 26.9471 20.7593 25.929 20.2436 24.9254C18.7681 22.0448 16.1926 19.3638 12.5943 16.9546Z" fill="#EB573F"/>
<path d="M3.01123 21.718C3.24042 22.6406 3.57848 23.5343 4.01681 24.373C4.11422 24.4396 4.21163 24.5061 4.3119 24.5726C6.72989 26.1893 8.64365 27.9217 10.0389 29.7467C10.7465 30.0186 11.4799 30.221 12.2219 30.3483C10.6949 27.835 8.30845 25.4836 5.11694 23.3463C4.32909 22.8199 3.63005 22.2704 3.01123 21.718Z" fill="#EB573F"/>
<path d="M15.3702 29.1713C15.5793 29.5791 15.7598 29.9869 15.9145 30.3947C16.3987 30.3224 16.8771 30.2154 17.3499 30.0794C17.1608 29.5502 16.9316 29.0209 16.6623 28.4974C15.1868 25.6168 12.6142 22.9357 9.01296 20.5265C6.11367 18.5859 4.42337 16.3502 3.46649 14.6496C3.22583 15.257 3.03675 15.8846 2.9021 16.5295C4.0452 18.233 5.72977 20.0898 8.21078 21.7499C11.6 24.0203 14.0094 26.5163 15.3702 29.1713Z" fill="#EB573F"/>
<path d="M18.7823 5.40903L17.751 6.456C17.9916 6.52541 18.2323 6.60061 18.4672 6.68448C18.7995 6.34609 19.1347 6.00771 19.4699 5.66643C19.2436 5.57677 19.0144 5.49001 18.7823 5.40903Z" fill="#EB573F"/>
<path d="M22.5126 7.38144C22.3865 7.28889 22.2576 7.19634 22.1258 7.10668C21.8192 7.41904 21.5127 7.73139 21.2033 8.04375C21.7448 8.40238 22.2604 8.8015 22.7417 9.2469C25.8387 12.1044 27.4173 16.2662 26.9303 20.4859C26.6552 22.6666 25.8588 24.7779 24.5696 26.5537C22.1172 29.9289 18.1493 31.9563 14.0009 31.9043C9.84678 31.8522 5.81585 29.7062 3.50673 26.2009C1.16896 22.6493 0.618898 18.0912 2.20319 14.1144C3.74165 10.2534 7.07927 7.30335 11.0844 6.30555C12.1015 6.05103 13.1443 5.93246 14.1871 5.93824C14.5997 5.51887 15.0122 5.09951 15.4248 4.68014C11.8064 4.35043 8.35989 5.44078 5.64395 7.5058C5.21135 7.83551 4.7988 8.18836 4.40631 8.56434C3.53824 9.3944 2.77331 10.3401 2.13444 11.3755C1.77632 11.9569 1.45545 12.5671 1.18042 13.2034C0.644682 14.4442 0.275108 15.7803 0.103214 17.1917C0.0631048 17.533 0.0344557 17.8743 0.0172662 18.2156C-0.0257075 19.1064 0.0115364 19.9885 0.128998 20.8475C0.956957 26.9644 5.67833 32.0344 11.9468 33.0322C12.1158 33.0583 12.282 33.0843 12.4538 33.1045C12.8234 33.1508 13.1901 33.1797 13.5568 33.1971C14.571 33.2405 15.5651 33.1739 16.5335 33.0091C17.0177 32.9252 17.4961 32.8182 17.9659 32.6852C18.6592 32.4885 19.3354 32.2398 19.9857 31.9419C20.5358 31.6902 21.0658 31.4039 21.5757 31.0858C25.1196 28.879 27.678 25.1279 28.2166 20.6392C28.8526 15.3321 26.5062 10.3401 22.5126 7.38144Z" fill="#EB573F"/>
<path d="M10.0673 11.1326C9.78655 11.4161 9.67482 11.821 9.94412 12.1651C10.1647 12.4515 10.6861 12.5758 10.9669 12.2895C13.9779 9.22957 16.9889 6.17253 20.0028 3.1126C20.593 2.51392 21.1803 1.91524 21.7705 1.31655C22.0484 1.03312 22.1601 0.628215 21.8937 0.284045C21.6731 0.000610924 21.1545 -0.123753 20.8738 0.162573C17.8599 3.21961 14.8489 6.27954 11.835 9.33658C11.2477 9.93526 10.6575 10.5339 10.0673 11.1326Z" fill="#EB573F"/>
<path d="M12.7316 13.5274C12.4509 13.8108 12.3391 14.2157 12.6084 14.5599C12.829 14.8462 13.3504 14.9706 13.6312 14.6842C16.6422 11.6272 19.6561 8.56728 22.6671 5.51024C23.2573 4.91156 23.8446 4.31288 24.4348 3.71419C24.7127 3.43076 24.8244 3.02585 24.558 2.68168C24.3374 2.39536 23.816 2.27099 23.5352 2.55732C20.5271 5.61725 17.5132 8.67429 14.5021 11.7313C13.912 12.33 13.3218 12.9287 12.7316 13.5274Z" fill="#EB573F"/>
<path d="M16.9375 17.0731C16.9605 17.0326 17.0837 16.8649 16.9777 17.0008C17.0894 16.8562 17.2298 16.7231 17.3644 16.6277C17.9231 16.2401 18.5791 16.3067 19.1951 16.5004C20.003 16.755 20.3468 15.4795 19.5417 15.2279C18.2067 14.8085 16.545 15.0775 15.803 16.4079C15.3934 17.1483 16.525 17.8135 16.9375 17.0731Z" fill="#EB573F"/>
<path d="M22.3838 19.8988C22.3552 19.9364 22.2148 20.0897 22.3351 19.9682C22.2062 20.0984 22.0544 20.217 21.9082 20.2951C21.3123 20.6161 20.6649 20.4773 20.0747 20.217C19.2983 19.8757 18.8199 21.1049 19.5905 21.4433C20.8711 22.0072 22.55 21.9234 23.4352 20.6855C23.9251 19.9943 22.8766 19.2076 22.3838 19.8988Z" fill="#EB573F"/>
<path d="M38.6442 27.3777C38.6442 27.6206 38.5567 27.8028 38.3762 27.9353C38.1957 28.0679 37.9331 28.1286 37.5776 28.1286H36.2759V25.3954H37.5339C37.8566 25.3954 38.1027 25.4561 38.2832 25.5776C38.4637 25.6991 38.5567 25.8703 38.5567 26.0966C38.5567 26.2402 38.5184 26.3672 38.4418 26.4721C38.3652 26.577 38.2613 26.6543 38.1246 26.7095C38.4692 26.8034 38.6442 27.0243 38.6442 27.3777ZM36.7517 26.577H37.4846C37.6706 26.577 37.8128 26.5439 37.9113 26.4721C38.0097 26.4058 38.0589 26.3009 38.0589 26.1739C38.0589 25.9144 37.8675 25.7819 37.4846 25.7819H36.7517V26.577V26.577ZM37.9988 27.6537C38.1027 27.5875 38.1519 27.4881 38.1519 27.3501C38.1519 27.2065 38.1027 27.1016 38.0097 27.0353C37.9167 26.9691 37.7691 26.9304 37.5667 26.9304H36.7517V27.7476H37.5393C37.7417 27.7476 37.8949 27.7145 37.9988 27.6537Z" fill="#93928C"/>
<path d="M40.4599 26.974H39.8966V28.128H39.4043V25.3948H39.8966V26.5488H40.4709L41.3515 25.3948H41.8765L40.8483 26.7089L41.9476 28.128H41.3679L40.4599 26.974Z" fill="#93928C"/>
<path d="M44.7267 25.4003L43.414 28.4041C43.2991 28.6802 43.1624 28.8789 43.0093 28.9894C42.8561 29.0998 42.6701 29.1605 42.4514 29.1605C42.3201 29.1605 42.1888 29.1385 42.0685 29.0943C41.9427 29.0501 41.8388 28.9894 41.7622 28.9066L41.97 28.5366C42.1123 28.6691 42.2709 28.7354 42.4568 28.7354C42.5772 28.7354 42.6756 28.7022 42.7577 28.6415C42.8397 28.5752 42.9108 28.4703 42.9764 28.3157L43.064 28.1225L41.8716 25.3948H42.3803L43.3265 27.5814L44.2618 25.3948H44.7267V25.4003Z" fill="#93928C"/>
<path d="M45.5901 27.9784C45.3768 27.857 45.2073 27.6913 45.0815 27.4815C44.9611 27.2717 44.8955 27.0287 44.8955 26.7637C44.8955 26.4986 44.9557 26.2557 45.0815 26.0459C45.2018 25.836 45.3714 25.6704 45.5901 25.5489C45.8089 25.433 46.0551 25.3722 46.3285 25.3722C46.5747 25.3722 46.7934 25.4219 46.9849 25.5213C47.1763 25.6207 47.324 25.7643 47.4334 25.952L47.0614 26.195C46.9739 26.0624 46.87 25.9686 46.7442 25.9023C46.6184 25.836 46.4762 25.8029 46.3231 25.8029C46.148 25.8029 45.9894 25.8416 45.8472 25.9189C45.705 25.9962 45.5956 26.1121 45.5136 26.2557C45.4315 26.3993 45.3932 26.5704 45.3932 26.7582C45.3932 26.9514 45.4315 27.1226 45.5136 27.2662C45.5956 27.4097 45.705 27.5257 45.8472 27.603C45.9894 27.6803 46.148 27.7189 46.3231 27.7189C46.4762 27.7189 46.6184 27.6858 46.7442 27.6195C46.87 27.5533 46.9739 27.4539 47.0614 27.3269L47.4334 27.5643C47.3295 27.7521 47.1763 27.9011 46.9849 28.0005C46.7934 28.0999 46.5747 28.1551 46.3285 28.1551C46.0496 28.1607 45.8089 28.0999 45.5901 27.9784Z" fill="#93928C"/>
<path d="M51.8095 27.3771C51.8095 27.62 51.722 27.8022 51.5415 27.9347C51.361 28.0673 51.0984 28.128 50.7429 28.128H49.4412V25.3948H50.6992C51.0164 25.3948 51.268 25.4555 51.4485 25.577C51.629 25.6985 51.7165 25.8696 51.7165 26.096C51.7165 26.2396 51.6782 26.3666 51.6016 26.4715C51.5251 26.5764 51.4211 26.6537 51.2844 26.7089C51.6344 26.8028 51.8095 27.0237 51.8095 27.3771ZM49.917 26.5764H50.6499C50.8359 26.5764 50.9781 26.5433 51.0766 26.4715C51.175 26.4052 51.2242 26.3003 51.2242 26.1733C51.2242 25.9138 51.0328 25.7813 50.6499 25.7813H49.917V26.5764ZM51.1641 27.6531C51.268 27.5869 51.3172 27.4875 51.3172 27.3494C51.3172 27.2059 51.268 27.101 51.175 27.0347C51.082 26.9685 50.9343 26.9298 50.732 26.9298H49.917V27.747H50.7046C50.907 27.747 51.0601 27.7139 51.1641 27.6531Z" fill="#93928C"/>
<path d="M54.998 26.974H54.4346V28.128H53.9424V25.3948H54.4346V26.5488H55.0089L55.8895 25.3948H56.4146L55.3863 26.7089L56.4857 28.128H55.9059L54.998 26.974Z" fill="#93928C"/>
<path d="M59.3681 27.3771C59.3681 27.62 59.2805 27.8022 59.1001 27.9347C58.9196 28.0673 58.657 28.128 58.3015 28.128H56.9998V25.3948H58.2577C58.5805 25.3948 58.8266 25.4555 59.0071 25.577C59.1876 25.6985 59.2806 25.8696 59.2806 26.096C59.2806 26.2396 59.2423 26.3666 59.1657 26.4715C59.0891 26.5764 58.9852 26.6537 58.8485 26.7089C59.193 26.8028 59.3681 27.0237 59.3681 27.3771ZM57.4811 26.5764H58.214C58.4 26.5764 58.5422 26.5433 58.6406 26.4715C58.7391 26.4052 58.7883 26.3003 58.7883 26.1733C58.7883 25.9138 58.5969 25.7813 58.214 25.7813H57.4811V26.5764ZM58.7281 27.6531C58.832 27.5869 58.8813 27.4875 58.8813 27.3494C58.8813 27.2059 58.832 27.101 58.7391 27.0347C58.6461 26.9685 58.4984 26.9298 58.296 26.9298H57.4811V27.747H58.2687C58.4711 27.747 58.6242 27.7139 58.7281 27.6531Z" fill="#93928C"/>
<path d="M61.9607 25.6483C62.1577 25.836 62.2616 26.1121 62.2616 26.4766V28.1275H61.7967V27.7686C61.7146 27.8956 61.5998 27.995 61.4466 28.0613C61.2935 28.1275 61.1184 28.1607 60.9106 28.1607C60.6098 28.1607 60.3636 28.0889 60.1831 27.9398C60.0027 27.7907 59.9097 27.5975 59.9097 27.3545C59.9097 27.1116 59.9972 26.9183 60.1722 26.7747C60.3472 26.6312 60.6207 26.5539 60.9981 26.5539H61.7748V26.4545C61.7748 26.2391 61.7146 26.079 61.5888 25.963C61.4685 25.8471 61.288 25.7919 61.0473 25.7919C60.8887 25.7919 60.7301 25.8195 60.577 25.8747C60.4238 25.9299 60.2925 26.0017 60.1886 26.09L59.9862 25.7201C60.123 25.6041 60.2925 25.5213 60.484 25.4606C60.6754 25.3998 60.8832 25.3722 61.102 25.3722C61.474 25.3722 61.7638 25.4661 61.9607 25.6483ZM61.474 27.6527C61.6107 27.5698 61.7091 27.4484 61.7693 27.2938V26.9128H61.0145C60.5988 26.9128 60.391 27.0563 60.391 27.3379C60.391 27.476 60.4457 27.5864 60.5496 27.6637C60.6535 27.741 60.8012 27.7797 60.9872 27.7797C61.1731 27.7797 61.3372 27.7355 61.474 27.6527Z" fill="#93928C"/>
<path d="M65.8985 27.6967V28.7624H65.439V28.1274H63.1746V28.7624H62.7097V27.6967H62.8519C63.027 27.6857 63.1473 27.5642 63.2074 27.3268C63.2731 27.0894 63.3168 26.7525 63.3387 26.3218L63.377 25.3997H65.4773V27.6967H65.8985V27.6967ZM63.7052 27.2108C63.6614 27.4372 63.5848 27.5973 63.4755 27.6967H64.9905V25.8304H63.8146L63.7872 26.355C63.7763 26.7028 63.7489 26.9844 63.7052 27.2108Z" fill="#93928C"/>
<path d="M68.6716 25.5489C68.8795 25.6649 69.0436 25.8305 69.1584 26.0403C69.2733 26.2502 69.3335 26.4931 69.3335 26.7692C69.3335 27.0453 69.2733 27.2882 69.1584 27.4981C69.0436 27.7079 68.8795 27.8735 68.6716 27.9895C68.4638 28.1055 68.2286 28.1662 67.9661 28.1662C67.7746 28.1662 67.5941 28.1275 67.4301 28.0502C67.266 27.9729 67.1292 27.8625 67.0198 27.7189V29.1325H66.5276V25.3998H66.998V25.8305C67.1074 25.6814 67.2441 25.5655 67.4137 25.4882C67.5832 25.4109 67.7637 25.3722 67.9661 25.3722C68.2286 25.3722 68.4638 25.433 68.6716 25.5489ZM68.3982 27.6085C68.5349 27.5257 68.6443 27.4152 68.7263 27.2662C68.8084 27.1226 68.8467 26.9514 68.8467 26.7637C68.8467 26.576 68.8084 26.4048 68.7263 26.2612C68.6443 26.1176 68.5349 26.0017 68.3982 25.9244C68.2614 25.8471 68.1028 25.8084 67.9333 25.8084C67.7637 25.8084 67.6106 25.8471 67.4738 25.9299C67.3371 26.0127 67.2277 26.1232 67.1456 26.2667C67.0636 26.4103 67.0253 26.5759 67.0253 26.7692C67.0253 26.9569 67.0636 27.1281 67.1402 27.2717C67.2167 27.4152 67.3261 27.5312 67.4683 27.614C67.6106 27.6969 67.7637 27.7355 67.9333 27.7355C68.1028 27.73 68.256 27.6858 68.3982 27.6085Z" fill="#93928C"/>
<path d="M71.8497 25.6483C72.0466 25.836 72.1505 26.1121 72.1505 26.4766V28.1275H71.6856V27.7686C71.6035 27.8956 71.4887 27.995 71.3355 28.0613C71.1824 28.1275 71.0019 28.1607 70.7995 28.1607C70.4987 28.1607 70.2526 28.0889 70.0721 27.9398C69.8916 27.7907 69.7986 27.5975 69.7986 27.3545C69.7986 27.1116 69.8861 26.9183 70.0611 26.7747C70.2361 26.6312 70.5096 26.5539 70.887 26.5539H71.6637V26.4545C71.6637 26.2391 71.6035 26.079 71.4777 25.963C71.3574 25.8471 71.1769 25.7919 70.9363 25.7919C70.7776 25.7919 70.619 25.8195 70.4659 25.8747C70.3127 25.9299 70.1815 26.0017 70.0775 26.09L69.8752 25.7201C70.0174 25.6041 70.1815 25.5213 70.3784 25.4606C70.5698 25.3998 70.7776 25.3722 70.9964 25.3722C71.3629 25.3722 71.6473 25.4661 71.8497 25.6483ZM71.3574 27.6527C71.4941 27.5698 71.5926 27.4484 71.6528 27.2938V26.9128H70.898C70.4823 26.9128 70.2744 27.0563 70.2744 27.3379C70.2744 27.476 70.3291 27.5864 70.4331 27.6637C70.537 27.741 70.6847 27.7797 70.8706 27.7797C71.062 27.7797 71.2261 27.7355 71.3574 27.6527Z" fill="#93928C"/>
<path d="M75.0496 25.8304H74.0596V28.1274H73.5674V25.8304H72.5774V25.3997H75.0496V25.8304V25.8304Z" fill="#93928C"/>
<path d="M77.8661 26.9295H75.6728C75.7056 27.1724 75.8095 27.3657 75.9845 27.5092C76.165 27.6528 76.3838 27.7301 76.6518 27.7301C76.9745 27.7301 77.2371 27.6197 77.434 27.3988L77.702 27.7191C77.5816 27.8626 77.4285 27.9731 77.2425 28.0504C77.062 28.1277 76.8542 28.1663 76.6299 28.1663C76.3455 28.1663 76.0885 28.1056 75.8697 27.9896C75.6509 27.8737 75.4759 27.708 75.3555 27.4927C75.2352 27.2773 75.175 27.0399 75.175 26.7693C75.175 26.5043 75.2352 26.2669 75.3501 26.0515C75.4649 25.8362 75.629 25.6705 75.8369 25.5546C76.0447 25.4386 76.2744 25.3779 76.5315 25.3779C76.7886 25.3779 77.0183 25.4386 77.2207 25.5546C77.423 25.6705 77.5816 25.8417 77.6965 26.0515C77.8114 26.2669 77.8661 26.5098 77.8661 26.7859C77.877 26.819 77.8715 26.8687 77.8661 26.9295ZM75.9463 26.0073C75.7876 26.1509 75.6947 26.3386 75.6673 26.5761H77.4011C77.3738 26.3442 77.2808 26.1564 77.1222 26.0129C76.9636 25.8693 76.7667 25.792 76.5315 25.792C76.3018 25.792 76.1049 25.8638 75.9463 26.0073Z" fill="#93928C"/>
<path d="M37.2112 22.0071C37.0252 21.9298 36.8666 21.8194 36.7299 21.6758C36.5876 21.5322 36.4783 21.3666 36.3962 21.1733C36.3142 20.9801 36.2759 20.7758 36.2759 20.5604V12.7804C36.2813 12.0515 36.4345 11.3558 36.7244 10.6987C37.0143 10.0361 37.4135 9.45634 37.9167 8.95386C38.4145 8.45691 38.9942 8.0704 39.6561 7.78879C40.3179 7.50718 41.007 7.36914 41.729 7.36914C42.4565 7.36914 43.1566 7.5127 43.8184 7.79431C44.4857 8.08144 45.0654 8.47348 45.5631 8.97595C46.0609 9.48395 46.4492 10.0803 46.7336 10.7484C47.018 11.4221 47.1548 12.1288 47.1548 12.8687C47.1548 13.6142 47.018 14.3154 46.7391 14.978C46.4602 15.6406 46.0663 16.2314 45.5631 16.7394C45.0654 17.2419 44.4857 17.6339 43.8184 17.9211C43.1511 18.2082 42.4565 18.3462 41.729 18.3462C40.8539 18.3462 40.0225 18.1419 39.2404 17.7389V20.5549C39.2404 21.0077 39.1091 21.3776 38.8411 21.6703C38.5676 21.9685 38.2176 22.1231 37.7909 22.1231C37.594 22.1231 37.3971 22.0844 37.2112 22.0071ZM42.6862 15.1547C42.987 15.0277 43.2495 14.851 43.4738 14.6246C43.7035 14.3927 43.884 14.1277 44.0098 13.824C44.1356 13.5258 44.2012 13.2056 44.2012 12.8687C44.2012 12.5319 44.1356 12.2117 44.0098 11.9135C43.884 11.6153 43.7035 11.3447 43.4738 11.1128C43.2495 10.8864 42.987 10.7098 42.6862 10.5828C42.3853 10.4558 42.0681 10.3895 41.7345 10.3895C41.4008 10.3895 41.0836 10.4558 40.7828 10.5828C40.482 10.7098 40.2194 10.8864 39.9952 11.1128C39.7654 11.3447 39.5849 11.6098 39.4537 11.9135C39.3224 12.2117 39.2568 12.5319 39.2568 12.8687C39.2568 13.2056 39.3224 13.5258 39.4537 13.824C39.5849 14.1222 39.7654 14.3927 39.9952 14.6246C40.2194 14.851 40.482 15.0277 40.7828 15.1547C41.0836 15.2817 41.4008 15.348 41.7345 15.348C42.0626 15.3424 42.3853 15.2817 42.6862 15.1547Z" fill="#EB573F"/>
<path d="M50.0974 5.97758C49.9498 5.8285 49.8294 5.65733 49.7474 5.45855C49.6599 5.26529 49.6216 5.06099 49.6216 4.85116C49.6216 4.41495 49.7802 4.03947 50.1029 3.7137C50.4092 3.40448 50.7811 3.24988 51.2187 3.24988C51.432 3.24988 51.6398 3.28853 51.8313 3.36583C52.0227 3.44314 52.1977 3.55909 52.3454 3.70818C52.6572 4.02291 52.8158 4.40391 52.8158 4.84564C52.8158 5.28185 52.6572 5.65733 52.3454 5.97206C52.1977 6.12115 52.0282 6.2371 51.8313 6.31993C51.6344 6.40275 51.432 6.4414 51.2187 6.4414C50.7811 6.44692 50.4092 6.29232 50.0974 5.97758ZM50.6389 18.2357C50.4584 18.1584 50.2998 18.048 50.1631 17.9154C50.0209 17.7829 49.9115 17.6228 49.8294 17.435C49.7474 17.2528 49.7091 17.0596 49.7091 16.8663V8.84885C49.7091 8.65559 49.7474 8.46234 49.8294 8.28012C49.9115 8.09791 50.0209 7.93778 50.1631 7.79973C50.2998 7.66721 50.4584 7.55678 50.6499 7.47948C50.8413 7.40217 51.0327 7.36352 51.2351 7.36352C51.4265 7.36352 51.618 7.40217 51.7984 7.47948C51.9789 7.55678 52.1376 7.66721 52.2743 7.79973C52.4056 7.93225 52.5095 8.09238 52.5806 8.2746C52.6517 8.45681 52.6845 8.64455 52.6845 8.84885V16.8663C52.6845 17.0596 52.6462 17.2528 52.5697 17.435C52.4931 17.6173 52.3837 17.7774 52.2524 17.9154C52.1211 18.048 51.9625 18.1584 51.782 18.2357C51.6015 18.313 51.4156 18.3516 51.2132 18.3516C51.0108 18.3516 50.8194 18.313 50.6389 18.2357Z" fill="#EB573F"/>
<path d="M56.5021 18.1146C56.3216 18.0373 56.163 17.9324 56.0262 17.7999C55.884 17.6674 55.7746 17.5072 55.6926 17.325C55.6106 17.1428 55.5723 16.9551 55.5723 16.7618V4.92885C55.5723 4.53129 55.7254 4.18342 56.0317 3.89077C56.163 3.75273 56.3216 3.65334 56.5076 3.57604C56.6881 3.49874 56.8795 3.46561 57.0819 3.46561C57.4975 3.46561 57.8476 3.60917 58.132 3.8963C58.4055 4.18895 58.5422 4.53681 58.5422 4.93437L58.5313 10.9475L61.7857 7.92712C62.0701 7.66208 62.3928 7.53508 62.7538 7.53508C62.9561 7.53508 63.1476 7.57374 63.3281 7.65104C63.5086 7.72834 63.6727 7.83877 63.8149 7.97129C63.9571 8.12038 64.0665 8.28603 64.1485 8.47377C64.2305 8.65598 64.2688 8.84924 64.2688 9.05355C64.2743 9.2468 64.2415 9.43454 64.1594 9.61676C64.0774 9.79897 63.9625 9.9591 63.8149 10.1027L61.102 12.615L64.4493 15.7016C64.7173 15.9501 64.8486 16.2593 64.8486 16.6238C64.8486 16.8281 64.8103 17.0213 64.7337 17.2091C64.6572 17.3968 64.5478 17.568 64.4165 17.7171C64.1212 18.0373 63.7766 18.203 63.3882 18.203C62.978 18.203 62.617 18.0539 62.2943 17.7502L58.5258 14.2715V16.7728C58.5258 16.9772 58.4875 17.1649 58.4164 17.3471C58.3399 17.5293 58.2359 17.6839 58.1047 17.8109C57.8202 18.0981 57.4811 18.2361 57.0764 18.2361C56.874 18.2306 56.6826 18.1919 56.5021 18.1146Z" fill="#EB573F"/>
<path d="M70.1543 17.9321C69.498 17.6505 68.9128 17.253 68.4096 16.745C67.9064 16.2425 67.5126 15.6572 67.2281 14.9891C66.9437 14.321 66.8015 13.6142 66.8015 12.8743C66.8015 12.1289 66.9437 11.4221 67.2281 10.754C67.5126 10.0803 67.9064 9.4895 68.4096 8.9815C68.9128 8.47351 69.498 8.07595 70.1543 7.79434C70.8107 7.51273 71.5108 7.37469 72.2437 7.37469C72.9712 7.37469 73.6658 7.51274 74.3221 7.78882C74.9785 8.0649 75.5582 8.45694 76.056 8.95941C76.5537 9.45637 76.9475 10.0306 77.2319 10.6932C77.5163 11.3558 77.6695 12.0516 77.6859 12.7859V16.8278C77.6859 17.253 77.5382 17.6174 77.2483 17.9101C77.1061 18.0536 76.942 18.1641 76.7561 18.2414C76.5701 18.3187 76.3732 18.3573 76.1654 18.3573C75.8919 18.3573 75.6457 18.2966 75.4324 18.1696C75.2191 18.0481 75.0496 17.8714 74.9128 17.645C74.0705 18.1199 73.179 18.3518 72.2382 18.3518C71.5108 18.3518 70.8162 18.2138 70.1543 17.9321ZM73.2063 15.1547C73.5126 15.0277 73.7752 14.851 73.9994 14.6247C74.2291 14.3927 74.4096 14.1277 74.5354 13.824C74.6612 13.5258 74.7269 13.2056 74.7269 12.8688C74.7269 12.5319 74.6612 12.2117 74.5354 11.9135C74.4096 11.6153 74.2291 11.3448 73.9994 11.1129C73.7752 10.8865 73.5126 10.7098 73.2063 10.5828C72.9 10.4558 72.5828 10.3895 72.2492 10.3895C71.921 10.3895 71.6092 10.4558 71.3084 10.5828C71.0076 10.7098 70.745 10.8865 70.5208 11.1129C70.2911 11.3448 70.1106 11.6098 69.9793 11.9135C69.848 12.2117 69.7824 12.5319 69.7824 12.8688C69.7824 13.2056 69.848 13.5258 69.9793 13.824C70.1106 14.1222 70.2911 14.3927 70.5208 14.6247C70.745 14.851 71.0076 15.0277 71.3084 15.1547C71.6092 15.2817 71.921 15.348 72.2492 15.348C72.5828 15.3425 72.9 15.2817 73.2063 15.1547Z" fill="#EB573F"/>
<path d="M81.5249 22.007C81.3389 21.9297 81.1803 21.8193 81.0436 21.6757C80.9014 21.5322 80.792 21.3665 80.7099 21.1732C80.6279 20.98 80.5896 20.7757 80.5896 20.5603V12.7803C80.5951 12.0514 80.7482 11.3557 81.0381 10.6986C81.328 10.036 81.7273 9.45625 82.2305 8.95377C82.7282 8.45682 83.308 8.0703 83.9698 7.7887C84.6316 7.50709 85.3208 7.36905 86.0427 7.36905C86.7702 7.36905 87.4703 7.51261 88.1321 7.79422C88.7994 8.08134 89.3792 8.47339 89.8769 8.97586C90.3746 9.48385 90.7629 10.0802 91.0474 10.7483C91.3318 11.422 91.4685 12.1287 91.4685 12.8686C91.4685 13.6141 91.3318 14.3153 91.0528 14.9779C90.7739 15.6405 90.3801 16.2313 89.8769 16.7393C89.3792 17.2418 88.7994 17.6339 88.1321 17.921C87.4648 18.2081 86.7702 18.3461 86.0427 18.3461C85.1676 18.3461 84.3362 18.1418 83.5541 17.7388V20.5548C83.5541 21.0076 83.4228 21.3775 83.1548 21.6702C82.8813 21.9684 82.5313 22.123 82.1047 22.123C81.9078 22.123 81.7109 22.0843 81.5249 22.007ZM86.9999 15.1546C87.3007 15.0276 87.5633 14.8509 87.7875 14.6245C88.0172 14.3926 88.1977 14.1276 88.3235 13.8239C88.4493 13.5257 88.515 13.2055 88.515 12.8686C88.515 12.5318 88.4493 12.2116 88.3235 11.9134C88.1977 11.6152 88.0172 11.3447 87.7875 11.1127C87.5633 10.8864 87.3007 10.7097 86.9999 10.5827C86.6991 10.4557 86.3818 10.3894 86.0482 10.3894C85.7146 10.3894 85.3973 10.4557 85.0965 10.5827C84.7957 10.7097 84.5331 10.8864 84.3089 11.1127C84.0792 11.3447 83.8987 11.6097 83.7674 11.9134C83.6361 12.2116 83.5705 12.5318 83.5705 12.8686C83.5705 13.2055 83.6361 13.5257 83.7674 13.8239C83.8987 14.1221 84.0792 14.3926 84.3089 14.6245C84.5331 14.8509 84.7957 15.0276 85.0965 15.1546C85.3973 15.2816 85.7146 15.3479 86.0482 15.3479C86.3764 15.3424 86.6991 15.2816 86.9999 15.1546Z" fill="#EB573F"/>
<path d="M94.4114 5.97758C94.2637 5.8285 94.1434 5.65733 94.0613 5.45855C93.9738 5.26529 93.9355 5.06099 93.9355 4.85116C93.9355 4.41495 94.0942 4.03947 94.4169 3.7137C94.7232 3.40448 95.0951 3.24988 95.5326 3.24988C95.746 3.24988 95.9538 3.28853 96.1452 3.36583C96.3367 3.44314 96.5117 3.55909 96.6594 3.70818C96.9711 4.02291 97.1298 4.40391 97.1298 4.84564C97.1298 5.28185 96.9711 5.65733 96.6594 5.97206C96.5117 6.12115 96.3421 6.2371 96.1452 6.31993C95.9538 6.40275 95.746 6.4414 95.5326 6.4414C95.0951 6.44692 94.7232 6.29232 94.4114 5.97758ZM94.9529 18.2357C94.7724 18.1584 94.6138 18.048 94.477 17.9154C94.3348 17.7829 94.2254 17.6228 94.1434 17.435C94.0613 17.2528 94.0231 17.0596 94.0231 16.8663V8.84885C94.0231 8.65559 94.0613 8.46234 94.1434 8.28012C94.2254 8.09791 94.3348 7.93778 94.477 7.79973C94.6138 7.66721 94.7724 7.55678 94.9638 7.47948C95.1553 7.40217 95.3467 7.36352 95.5491 7.36352C95.7405 7.36352 95.9319 7.40217 96.1124 7.47948C96.2929 7.55678 96.4515 7.66721 96.5883 7.79973C96.7195 7.93225 96.8235 8.09238 96.8946 8.2746C96.9657 8.45681 96.9985 8.64455 96.9985 8.84885V16.8663C96.9985 17.0596 96.9602 17.2528 96.8836 17.435C96.8071 17.6173 96.6977 17.7774 96.5664 17.9154C96.4351 18.048 96.2765 18.1584 96.096 18.2357C95.9155 18.313 95.7296 18.3516 95.5272 18.3516C95.3248 18.3516 95.1334 18.313 94.9529 18.2357Z" fill="#EB573F"/>
<path d="M100.817 18.1146C100.636 18.0373 100.477 17.9324 100.341 17.7999C100.198 17.6674 100.089 17.5072 100.007 17.325C99.925 17.1428 99.8867 16.9551 99.8867 16.7618V4.92885C99.8867 4.53129 100.04 4.18342 100.346 3.89077C100.477 3.75273 100.636 3.65334 100.822 3.57604C101.003 3.49874 101.194 3.46561 101.396 3.46561C101.812 3.46561 102.162 3.60917 102.446 3.8963C102.72 4.18895 102.857 4.53681 102.857 4.93437L102.846 10.9475L106.1 7.92712C106.385 7.66208 106.707 7.53508 107.068 7.53508C107.271 7.53508 107.462 7.57374 107.643 7.65104C107.823 7.72834 107.987 7.83877 108.129 7.97129C108.272 8.12038 108.381 8.28603 108.463 8.47377C108.545 8.66151 108.583 8.84924 108.583 9.05355C108.589 9.2468 108.556 9.43454 108.474 9.61676C108.392 9.79897 108.277 9.9591 108.129 10.1027L105.416 12.615L108.764 15.7016C109.032 15.9501 109.163 16.2593 109.163 16.6238C109.163 16.8281 109.125 17.0213 109.048 17.2091C108.972 17.3968 108.862 17.568 108.731 17.7171C108.436 18.0373 108.091 18.203 107.703 18.203C107.292 18.203 106.931 18.0539 106.609 17.7502L102.84 14.2715V16.7728C102.84 16.9772 102.802 17.1649 102.731 17.3471C102.654 17.5293 102.55 17.6839 102.419 17.8109C102.135 18.0981 101.796 18.2361 101.391 18.2361C101.188 18.2306 100.997 18.1919 100.817 18.1146Z" fill="#EB573F"/>
<path d="M114.469 17.9321C113.812 17.6505 113.227 17.253 112.724 16.745C112.221 16.2425 111.827 15.6572 111.542 14.9891C111.258 14.321 111.116 13.6142 111.116 12.8743C111.116 12.1289 111.258 11.4221 111.542 10.754C111.827 10.0803 112.221 9.4895 112.724 8.9815C113.227 8.47351 113.812 8.07595 114.469 7.79434C115.125 7.51273 115.825 7.37469 116.558 7.37469C117.285 7.37469 117.98 7.51274 118.636 7.78882C119.293 8.0649 119.872 8.45694 120.37 8.95941C120.868 9.45637 121.262 10.0306 121.546 10.6932C121.831 11.3558 121.984 12.0516 122 12.7859V16.8278C122 17.253 121.852 17.6174 121.563 17.9101C121.42 18.0536 121.256 18.1641 121.07 18.2414C120.884 18.3187 120.687 18.3573 120.48 18.3573C120.206 18.3573 119.96 18.2966 119.747 18.1696C119.533 18.0481 119.364 17.8714 119.227 17.645C118.385 18.1199 117.493 18.3518 116.552 18.3518C115.825 18.3518 115.13 18.2138 114.469 17.9321ZM117.521 15.1547C117.827 15.0277 118.089 14.851 118.314 14.6247C118.543 14.3927 118.724 14.1277 118.85 13.824C118.975 13.5258 119.041 13.2056 119.041 12.8688C119.041 12.5319 118.975 12.2117 118.85 11.9135C118.724 11.6153 118.543 11.3448 118.314 11.1129C118.089 10.8865 117.827 10.7098 117.521 10.5828C117.214 10.4558 116.897 10.3895 116.563 10.3895C116.235 10.3895 115.923 10.4558 115.623 10.5828C115.322 10.7098 115.059 10.8865 114.835 11.1129C114.605 11.3448 114.425 11.6098 114.294 11.9135C114.162 12.2117 114.097 12.5319 114.097 12.8688C114.097 13.2056 114.162 13.5258 114.294 13.824C114.425 14.1222 114.605 14.3927 114.835 14.6247C115.059 14.851 115.322 15.0277 115.623 15.1547C115.923 15.2817 116.235 15.348 116.563 15.348C116.897 15.3425 117.214 15.2817 117.521 15.1547Z" fill="#EB573F"/>
</svg>
