<?xml version="1.0" standalone="no"?>
<!DOCTYPE svg PUBLIC "-//W3C//DTD SVG 20010904//EN"
 "http://www.w3.org/TR/2001/REC-SVG-20010904/DTD/svg10.dtd">
<svg version="1.0" xmlns="http://www.w3.org/2000/svg"
 width="1080.000000pt" height="1080.000000pt" viewBox="0 0 1080.000000 1080.000000"
 preserveAspectRatio="xMidYMid meet">

<g transform="translate(0.000000,1080.000000) scale(0.100000,-0.100000)"
fill="#000000" stroke="none">
<path d="M4597 9803 c-57 -93 -130 -259 -159 -357 -86 -296 -52 -556 107 -811
44 -70 54 -95 37 -95 -16 0 -70 30 -83 46 -7 8 -20 19 -30 25 -17 9 -17 6 -3
-43 9 -29 31 -89 51 -133 59 -136 66 -163 67 -275 0 -96 -3 -114 -37 -213 -38
-111 -92 -229 -140 -304 -50 -78 -132 -141 -155 -119 -9 10 -9 109 2 356 7
179 6 213 -9 270 -9 35 -23 76 -30 90 -15 29 -13 33 -45 -85 -60 -217 -98
-296 -251 -515 -86 -122 -130 -225 -144 -336 -8 -56 12 -149 43 -205 22 -40
95 -99 123 -99 16 0 19 7 19 48 0 70 38 187 55 170 4 -3 13 -32 22 -65 17 -65
53 -143 80 -173 22 -22 83 -50 113 -50 54 0 167 73 248 159 109 117 259 396
279 517 3 19 11 34 18 34 40 0 58 -222 30 -365 -22 -113 -71 -220 -125 -269
l-40 -36 41 0 c114 0 178 42 230 152 44 96 82 128 154 128 45 0 53 -3 66 -26
15 -30 101 -77 131 -72 11 2 30 20 42 43 48 88 127 268 162 368 20 59 40 107
45 107 17 0 31 -79 37 -212 4 -75 10 -139 14 -143 8 -8 48 29 70 65 8 14 21
50 27 80 19 82 22 90 31 90 5 0 17 -27 27 -60 9 -33 20 -60 24 -60 3 0 13 35
22 78 13 59 15 90 7 135 -5 31 -11 61 -14 66 -7 11 -33 201 -41 296 -8 108
-50 282 -86 355 -16 33 -29 63 -29 66 0 9 -80 104 -120 141 -40 38 -168 118
-176 110 -3 -3 21 -47 53 -99 95 -153 125 -235 138 -376 6 -69 5 -82 -8 -82
-10 0 -17 15 -22 47 -8 57 -43 152 -62 171 -7 7 -13 18 -13 23 0 5 -4 9 -10 9
-6 0 -10 -64 -10 -172 -1 -357 -67 -562 -193 -600 -62 -19 -70 -1 -64 147 3
66 11 136 17 155 10 34 29 134 36 195 9 73 4 225 -9 285 -31 139 -95 263 -226
428 -76 96 -119 172 -176 307 -20 50 -49 115 -62 145 -24 53 -25 54 -35 30
-16 -37 -12 -165 6 -250 9 -41 19 -87 23 -102 4 -22 2 -28 -11 -28 -24 0 -61
87 -82 190 -13 68 -16 120 -11 270 2 102 9 205 15 230 12 54 35 240 30 245 -2
2 -16 -17 -31 -42z"/>
<path d="M5961 8697 c-77 -105 -110 -231 -110 -419 -1 -121 4 -136 42 -130 20
4 24 -27 5 -46 -13 -13 -14 -116 -3 -266 8 -109 -4 -205 -36 -291 -11 -27 -19
-52 -19 -55 0 -11 83 78 98 105 9 17 26 59 37 94 28 90 45 91 45 2 0 -39 4
-71 9 -71 18 0 83 77 109 130 24 48 27 66 26 147 -1 90 -3 96 -46 180 -88 169
-106 264 -121 608 l-2 60 -34 -48z"/>
<path d="M7560 7608 c-25 -5 -58 -15 -75 -22 -16 -8 -41 -17 -55 -21 -32 -9
-169 -80 -197 -103 -13 -10 -19 -22 -15 -29 5 -8 28 -2 82 24 123 58 176 73
259 73 86 0 151 -24 213 -79 20 -17 43 -31 51 -31 9 0 29 17 44 38 15 20 31
38 35 40 16 7 -85 100 -121 110 -45 14 -157 14 -221 0z"/>
<path d="M6410 7584 c-79 -10 -210 -62 -335 -132 -48 -26 -244 -156 -387 -255
-171 -119 -198 -137 -203 -137 -2 0 -21 -11 -41 -25 -63 -43 -216 -114 -324
-150 -233 -78 -408 -97 -760 -78 -248 13 -625 15 -652 5 -11 -5 16 -17 82 -37
55 -16 100 -35 100 -41 0 -8 -65 -13 -202 -17 -200 -6 -309 -17 -398 -38 -123
-31 -252 -92 -296 -141 -28 -30 -74 -101 -70 -105 2 -2 63 3 136 12 223 26
481 14 749 -35 30 -6 59 -10 65 -10 20 0 -18 19 -71 36 -33 10 -53 22 -53 32
0 40 269 -19 635 -140 223 -74 410 -129 585 -171 192 -47 239 -55 405 -73 373
-40 543 -28 863 60 29 9 67 22 84 31 17 8 34 15 38 15 17 0 199 106 240 139
93 78 182 141 196 141 34 0 9 -45 -70 -124 -82 -82 -82 -84 -37 -59 25 13 66
41 90 61 24 20 47 39 50 42 20 15 103 133 129 182 59 112 99 289 87 388 -14
120 -47 224 -97 309 -109 185 -159 230 -330 299 -31 13 -157 22 -208 16z m200
-144 l24 -13 -24 -9 c-14 -5 -87 -27 -163 -49 -158 -45 -216 -72 -382 -179
-66 -42 -152 -97 -192 -123 -130 -83 -218 -127 -254 -127 -23 0 -86 -25 -184
-74 -149 -74 -256 -117 -370 -151 -71 -21 -275 -34 -275 -17 0 11 101 44 250
82 147 37 291 89 415 151 127 62 344 200 429 273 143 120 271 200 386 238 45
15 79 18 185 15 83 -2 139 -8 155 -17z"/>
<path d="M7030 7385 c22 -36 51 -93 66 -127 14 -35 33 -79 42 -98 l16 -34 7
33 c8 41 -11 117 -45 174 -25 44 -98 117 -116 117 -5 0 8 -29 30 -65z"/>
<path d="M4186 6175 c-13 -36 23 -65 49 -39 18 19 19 26 3 42 -17 17 -45 15
-52 -3z"/>
<path d="M4565 6084 c-35 -37 -32 -76 6 -108 34 -29 38 -30 73 -16 30 11 58
61 49 87 -22 64 -86 82 -128 37z"/>
<path d="M5062 5958 c-16 -16 -15 -53 2 -68 21 -16 56 -9 72 15 27 41 -39 88
-74 53z"/>
<path d="M6001 5961 c-8 -5 -14 -24 -14 -41 0 -53 58 -70 87 -25 15 23 15 27
0 50 -17 25 -47 32 -73 16z"/>
<path d="M5565 5913 c-30 -33 -32 -65 -5 -103 25 -35 61 -42 99 -19 43 26 56
54 40 90 -25 63 -91 78 -134 32z"/>
<path d="M3422 4778 l3 -673 75 -3 c41 -2 90 0 107 3 l33 6 2 567 3 567 105 0
105 0 3 -573 2 -573 108 3 107 3 3 673 2 672 -330 0 -330 0 2 -672z"/>
<path d="M4222 4778 l3 -673 283 -3 282 -2 0 105 0 105 -175 0 -175 0 0 185 0
185 140 0 140 0 0 105 0 105 -140 0 -140 0 0 180 0 180 175 0 175 0 0 100 0
100 -285 0 -285 0 2 -672z"/>
<path d="M4912 4778 l3 -673 105 0 105 0 5 250 5 250 100 6 c117 6 163 26 218
89 59 70 72 129 72 335 0 163 -2 185 -23 236 -27 68 -74 118 -139 150 -45 22
-61 24 -251 27 l-202 4 2 -674z m381 441 c17 -21 18 -39 15 -197 -3 -169 -4
-174 -27 -193 -17 -14 -39 -19 -87 -19 l-64 0 0 221 0 222 72 -5 c60 -5 75
-10 91 -29z"/>
<path d="M5622 4778 l3 -673 260 -1 260 0 3 -87 3 -87 104 0 105 0 0 190 0
190 -45 0 -45 0 0 570 0 570 -110 0 -110 0 0 -570 0 -570 -105 0 -105 0 0 570
0 570 -110 0 -110 0 2 -672z"/>
<path d="M6480 4773 l0 -676 188 6 c210 7 243 14 304 60 93 71 123 179 116
408 -6 168 -25 232 -86 294 -55 56 -108 76 -218 82 l-94 6 0 248 0 249 -105 0
-105 0 0 -677z m372 -53 c16 -19 18 -44 18 -186 0 -156 -10 -221 -31 -208 -5
3 -9 1 -9 -4 0 -5 -31 -10 -70 -11 l-70 -2 0 214 c0 117 3 217 8 221 4 5 36 6
72 3 50 -4 68 -10 82 -27z"/>
<path d="M7190 4775 l0 -675 88 0 c48 0 97 3 110 6 l22 6 0 669 0 669 -110 0
-110 0 0 -675z"/>
<path d="M3388 3662 l-28 -3 0 -828 0 -828 63 -32 c34 -17 96 -50 137 -72 41
-22 136 -72 210 -111 74 -39 162 -85 195 -103 33 -18 116 -62 185 -98 69 -36
154 -80 190 -99 36 -19 121 -64 190 -100 69 -36 145 -77 170 -90 25 -14 115
-61 200 -105 85 -44 173 -91 195 -103 22 -13 96 -52 165 -88 69 -36 127 -69
128 -73 5 -13 23 -11 41 5 9 7 88 50 176 96 88 45 187 97 220 115 33 18 119
63 190 100 72 37 166 87 210 110 44 23 148 77 230 120 169 87 328 171 425 223
72 39 211 111 428 223 l142 74 0 832 0 833 -22 0 c-13 0 -921 1 -2018 3 -1097
1 -2007 1 -2022 -1z m1278 -263 c207 -38 343 -190 360 -404 21 -259 -173 -532
-410 -576 -62 -11 -157 1 -205 26 -36 18 -32 25 -60 -90 -24 -101 -41 -204
-44 -275 -2 -53 -3 -54 -37 -62 -80 -16 -154 35 -179 124 -11 38 -10 59 3 130
34 182 170 547 317 852 10 22 17 41 15 43 -6 6 -104 -35 -148 -63 -23 -15 -66
-49 -94 -76 l-52 -49 -25 33 c-37 50 -47 73 -47 113 0 182 319 326 606 274z
m1584 -34 c35 -18 65 -56 80 -101 11 -32 8 -39 -39 -122 -57 -98 -114 -224
-161 -352 l-30 -85 37 45 c124 151 235 228 314 217 53 -7 102 -46 130 -104 34
-68 33 -221 0 -306 -13 -32 -21 -60 -18 -63 9 -10 120 39 152 67 38 34 52 25
35 -24 -22 -66 -73 -105 -186 -143 -43 -14 -82 -32 -86 -38 -26 -46 -110 -132
-160 -166 -52 -35 -68 -40 -116 -40 -64 0 -125 30 -165 82 l-25 32 -7 -50
c-10 -76 -11 -77 -52 -71 -64 11 -133 97 -133 167 l0 32 -46 -57 c-58 -71
-134 -131 -184 -146 -116 -35 -199 55 -188 203 l4 57 -40 -62 c-58 -90 -153
-182 -203 -197 -69 -21 -125 7 -166 83 -30 57 -30 207 1 321 37 132 155 385
193 409 21 13 97 -10 125 -38 33 -33 30 -61 -17 -162 -106 -230 -139 -403 -78
-403 50 0 200 192 328 420 110 197 109 196 155 180 40 -13 76 -59 76 -96 0
-11 -20 -61 -44 -110 -83 -164 -140 -378 -107 -399 26 -15 67 9 145 88 81 82
81 82 104 172 79 311 202 626 290 743 27 36 40 39 82 17z m-1125 -1551 c19
-17 25 -33 25 -65 0 -44 2 -41 -100 -129 l-35 -29 73 -1 72 0 0 -30 0 -30
-116 0 -116 0 8 32 c9 45 25 66 89 121 55 48 66 72 43 95 -20 20 -48 14 -60
-13 -9 -20 -19 -25 -45 -25 -31 0 -34 2 -28 23 13 40 35 67 63 73 15 3 31 7
36 8 24 6 68 -9 91 -30z m248 14 c37 -19 57 -69 57 -144 0 -57 -4 -78 -23
-105 -62 -92 -178 -69 -207 42 -24 89 11 194 74 219 22 10 69 4 99 -12z m428
12 c61 -17 86 -75 54 -124 -14 -21 -13 -24 5 -41 32 -29 27 -85 -11 -121 -26
-25 -38 -29 -86 -28 -50 0 -59 4 -84 32 -39 43 -38 62 4 62 21 0 36 -7 45 -20
26 -42 90 -14 78 34 -5 19 -14 25 -39 28 -27 2 -33 8 -35 31 -3 23 0 27 21 27
33 0 54 26 40 48 -15 24 -45 27 -60 6 -17 -23 -73 -28 -73 -7 0 27 21 55 53
68 39 17 43 17 88 5z m-201 -155 l0 -155 -35 0 -35 0 0 111 0 112 -30 -6 c-28
-6 -30 -4 -30 23 0 19 5 30 14 30 8 0 24 9 37 20 13 10 36 19 52 20 l27 0 0
-155z m-820 -35 l0 -30 -65 0 -65 0 0 30 0 30 65 0 65 0 0 -30z m1390 0 l0
-30 -70 0 -70 0 0 30 0 30 70 0 70 0 0 -30z"/>
<path d="M4633 3158 c0 -18 -22 -82 -50 -143 -57 -123 -156 -385 -149 -392 2
-3 32 -4 66 -4 149 0 298 141 330 311 22 114 -34 214 -139 249 -51 17 -57 14
-58 -21z"/>
<path d="M6348 2810 c-53 -35 -165 -150 -228 -234 -35 -47 -41 -59 -29 -67 25
-16 82 -29 155 -35 l71 -7 52 105 c43 85 54 116 58 171 4 46 2 71 -7 82 -17
20 -20 20 -72 -15z"/>
<path d="M6102 2375 c37 -34 60 -41 92 -29 24 9 19 24 -6 24 -13 0 -43 9 -67
20 -59 27 -62 25 -19 -15z"/>
<path d="M5291 1771 c-16 -16 -21 -34 -21 -78 0 -76 8 -101 32 -109 33 -10 52
19 55 88 6 95 -25 140 -66 99z"/>
</g>
</svg>
