<svg width="146" height="33" viewBox="0 0 146 33" fill="none" xmlns="http://www.w3.org/2000/svg">
<path d="M1.5843 31.8358C1.26929 31.7046 1.00061 31.5171 0.768987 31.2735C0.5281 31.0298 0.342802 30.7487 0.203828 30.4206C0.0648544 30.0926 0 29.7459 0 29.3804V16.1757C0.00926491 14.9386 0.268682 13.7578 0.759722 12.6425C1.25076 11.5179 1.9271 10.5339 2.77947 9.68108C3.62258 8.83762 4.60466 8.1816 5.72571 7.70365C6.84677 7.22569 8.01415 6.99139 9.23711 6.99139C10.4693 6.99139 11.6553 7.23506 12.7763 7.71301C13.9066 8.20034 14.8887 8.86574 15.7318 9.71856C16.5749 10.5808 17.2327 11.5929 17.7145 12.7269C18.1963 13.8702 18.4279 15.0698 18.4279 16.3256C18.4279 17.5908 18.1963 18.781 17.7238 19.9056C17.2513 21.0302 16.5842 22.033 15.7318 22.8952C14.8887 23.748 13.9066 24.4134 12.7763 24.9007C11.646 25.388 10.4693 25.6223 9.23711 25.6223C7.75473 25.6223 6.34646 25.2756 5.02158 24.5914V29.371C5.02158 30.1395 4.79922 30.7674 4.34524 31.2641C3.882 31.7702 3.28904 32.0326 2.56638 32.0326C2.23284 32.0326 1.89931 31.967 1.5843 31.8358ZM10.8585 20.2055C11.368 19.99 11.8128 19.6901 12.1926 19.3058C12.5817 18.9122 12.8875 18.4624 13.1006 17.9469C13.3137 17.4408 13.4249 16.8973 13.4249 16.3256C13.4249 15.7539 13.3137 15.2104 13.1006 14.7043C12.8875 14.1982 12.5817 13.739 12.1926 13.3454C11.8128 12.9612 11.368 12.6613 10.8585 12.4457C10.3489 12.2302 9.81154 12.1177 9.24638 12.1177C8.68122 12.1177 8.14385 12.2302 7.63428 12.4457C7.12471 12.6613 6.68 12.9612 6.30014 13.3454C5.91101 13.739 5.60527 14.1889 5.38291 14.7043C5.16055 15.2104 5.04938 15.7539 5.04938 16.3256C5.04938 16.8973 5.16055 17.4408 5.38291 17.9469C5.60527 18.453 5.91101 18.9122 6.30014 19.3058C6.68 19.6901 7.12471 19.99 7.63428 20.2055C8.14385 20.421 8.68122 20.5335 9.24638 20.5335C9.80227 20.5241 10.3489 20.421 10.8585 20.2055Z" fill="#EB573F"/>
<path d="M23.4124 4.62962C23.1623 4.37658 22.9584 4.08606 22.8195 3.74868C22.6712 3.42067 22.6064 3.07392 22.6064 2.71779C22.6064 1.97743 22.8751 1.34015 23.4217 0.787219C23.9405 0.262404 24.5705 0 25.3117 0C25.6731 0 26.0251 0.065601 26.3494 0.196805C26.6737 0.328008 26.9701 0.524816 27.2203 0.777852C27.7484 1.31204 28.0171 1.95868 28.0171 2.70842C28.0171 3.44878 27.7484 4.08606 27.2203 4.62024C26.9701 4.87328 26.6829 5.07008 26.3494 5.21066C26.0159 5.35123 25.6731 5.41684 25.3117 5.41684C24.5705 5.42621 23.9405 5.1638 23.4124 4.62962ZM24.3297 25.4348C24.0239 25.3036 23.7552 25.1161 23.5236 24.8912C23.2827 24.6663 23.0974 24.3945 22.9585 24.0759C22.8195 23.7666 22.7546 23.4386 22.7546 23.1106V9.50289C22.7546 9.17488 22.8195 8.84688 22.9585 8.53761C23.0974 8.22834 23.2827 7.95656 23.5236 7.72227C23.7552 7.49735 24.0239 7.30991 24.3482 7.17871C24.6725 7.04751 24.9967 6.98191 25.3395 6.98191C25.6638 6.98191 25.9881 7.04751 26.2938 7.17871C26.5995 7.30991 26.8682 7.49735 27.0998 7.72227C27.3222 7.94719 27.4982 8.21897 27.6187 8.52824C27.7391 8.8375 27.7947 9.15614 27.7947 9.50289V23.1106C27.7947 23.4386 27.7299 23.7666 27.6002 24.0759C27.4704 24.3851 27.2851 24.6569 27.0628 24.8912C26.8404 25.1161 26.5718 25.3036 26.266 25.4348C25.9603 25.566 25.6453 25.6316 25.3025 25.6316C24.9597 25.6316 24.6354 25.566 24.3297 25.4348Z" fill="#EB573F"/>
<path d="M34.2617 25.2281C33.956 25.0969 33.6873 24.9188 33.4557 24.6939C33.2148 24.469 33.0295 24.1972 32.8905 23.888C32.7516 23.5787 32.6867 23.2601 32.6867 22.932V2.84849C32.6867 2.17373 32.9461 1.58331 33.465 1.08661C33.6873 0.852316 33.956 0.683625 34.271 0.552421C34.5768 0.421218 34.901 0.36499 35.2438 0.36499C35.948 0.36499 36.5409 0.608653 37.0227 1.09598C37.4859 1.59268 37.7176 2.1831 37.7176 2.85786L37.699 13.0636L43.2117 7.93733C43.6934 7.48748 44.2401 7.27194 44.8515 7.27194C45.1943 7.27194 45.5186 7.33754 45.8244 7.46874C46.1301 7.59995 46.408 7.78737 46.6489 8.01229C46.8898 8.26533 47.0751 8.54648 47.2141 8.86512C47.3531 9.17439 47.4179 9.5024 47.4179 9.84915C47.4272 10.1772 47.3716 10.4958 47.2326 10.8051C47.0937 11.1143 46.8991 11.3861 46.6489 11.6298L42.0535 15.8939L47.7237 21.1327C48.1776 21.5544 48.4 22.0792 48.4 22.6978C48.4 23.0445 48.3352 23.3725 48.2054 23.6912C48.0757 24.0098 47.8904 24.3003 47.6681 24.5534C47.1678 25.0969 46.5841 25.3781 45.9263 25.3781C45.2314 25.3781 44.6199 25.125 44.0733 24.6096L37.6898 18.7054V22.9508C37.6898 23.2975 37.6249 23.6162 37.5045 23.9255C37.3748 24.2347 37.1987 24.4971 36.9764 24.7127C36.4946 25.2 35.9202 25.4343 35.2346 25.4343C34.8918 25.4249 34.5675 25.3593 34.2617 25.2281Z" fill="#EB573F"/>
<path d="M57.3868 24.9193C56.2751 24.4413 55.2837 23.7665 54.4313 22.9043C53.579 22.0515 52.9119 21.0581 52.4301 19.9241C51.9483 18.7902 51.7075 17.5906 51.7075 16.3348C51.7075 15.0696 51.9483 13.87 52.4301 12.736C52.9119 11.5927 53.579 10.5899 54.4313 9.72771C55.2837 8.86552 56.2751 8.19075 57.3868 7.71279C58.4986 7.23484 59.6845 7.00055 60.926 7.00055C62.1583 7.00055 63.3349 7.23484 64.4467 7.70343C65.5585 8.17201 66.5406 8.8374 67.3837 9.69022C68.2268 10.5337 68.8939 11.5083 69.3756 12.6329C69.8574 13.7575 70.1168 14.9384 70.1446 16.1848V23.0449C70.1446 23.7665 69.8945 24.3851 69.4034 24.8818C69.1625 25.1254 68.8846 25.3129 68.5696 25.4441C68.2546 25.5753 67.921 25.6409 67.569 25.6409C67.1057 25.6409 66.6888 25.5378 66.3275 25.3222C65.9661 25.1161 65.6789 24.8162 65.4473 24.4319C64.0205 25.2379 62.5103 25.6315 60.9168 25.6315C59.6845 25.6315 58.5079 25.3972 57.3868 24.9193ZM62.5567 20.2053C63.0755 19.9897 63.5202 19.6898 63.9001 19.3056C64.2892 18.912 64.5949 18.4621 64.808 17.9467C65.0211 17.4406 65.1323 16.8971 65.1323 16.3254C65.1323 15.7537 65.0211 15.2102 64.808 14.7041C64.5949 14.198 64.2892 13.7388 63.9001 13.3452C63.5202 12.961 63.0755 12.6611 62.5567 12.4455C62.0378 12.23 61.5005 12.1175 60.9353 12.1175C60.3794 12.1175 59.8513 12.23 59.3417 12.4455C58.8322 12.6611 58.3875 12.961 58.0076 13.3452C57.6185 13.7388 57.3127 14.1886 57.0904 14.7041C56.868 15.2102 56.7568 15.7537 56.7568 16.3254C56.7568 16.8971 56.868 17.4406 57.0904 17.9467C57.3127 18.4528 57.6185 18.912 58.0076 19.3056C58.3875 19.6898 58.8322 19.9897 59.3417 20.2053C59.8513 20.4208 60.3794 20.5333 60.9353 20.5333C61.5005 20.5239 62.0378 20.4208 62.5567 20.2053Z" fill="#EB573F"/>
<path d="M76.6485 31.8358C76.3335 31.7046 76.0648 31.5171 75.8332 31.2735C75.5923 31.0298 75.407 30.7487 75.268 30.4206C75.1291 30.0926 75.0642 29.7459 75.0642 29.3804V16.1757C75.0735 14.9386 75.3329 13.7578 75.8239 12.6425C76.315 11.5179 76.9913 10.5339 77.8437 9.68108C78.6868 8.83762 79.6689 8.1816 80.7899 7.70365C81.911 7.22569 83.0784 6.99139 84.3013 6.99139C85.5336 6.99139 86.7195 7.23506 87.8405 7.71301C88.9708 8.20034 89.9529 8.86574 90.796 9.71856C91.6391 10.5808 92.297 11.5929 92.7787 12.7269C93.2605 13.8702 93.4921 15.0698 93.4921 16.3256C93.4921 17.5908 93.2605 18.781 92.788 19.9056C92.3155 21.0302 91.6484 22.033 90.796 22.8952C89.9529 23.748 88.9708 24.4134 87.8405 24.9007C86.7102 25.388 85.5336 25.6223 84.3013 25.6223C82.8189 25.6223 81.4107 25.2756 80.0858 24.5914V29.371C80.0858 30.1395 79.8634 30.7674 79.4095 31.2641C78.9462 31.7702 78.3533 32.0326 77.6306 32.0326C77.2971 32.0326 76.9635 31.967 76.6485 31.8358ZM85.9227 20.2055C86.4323 19.99 86.877 19.6901 87.2568 19.3058C87.646 18.9122 87.9517 18.4624 88.1648 17.9469C88.3779 17.4408 88.4891 16.8973 88.4891 16.3256C88.4891 15.7539 88.3779 15.2104 88.1648 14.7043C87.9517 14.1982 87.646 13.739 87.2568 13.3454C86.877 12.9612 86.4323 12.6613 85.9227 12.4457C85.4131 12.2302 84.8758 12.1177 84.3106 12.1177C83.7454 12.1177 83.2081 12.2302 82.6985 12.4457C82.1889 12.6613 81.7442 12.9612 81.3644 13.3454C80.9752 13.739 80.6695 14.1889 80.4471 14.7043C80.2248 15.2104 80.1136 15.7539 80.1136 16.3256C80.1136 16.8973 80.2248 17.4408 80.4471 17.9469C80.6695 18.453 80.9752 18.9122 81.3644 19.3058C81.7442 19.6901 82.1889 19.99 82.6985 20.2055C83.2081 20.421 83.7454 20.5335 84.3106 20.5335C84.8665 20.5241 85.4131 20.421 85.9227 20.2055Z" fill="#EB573F"/>
<path d="M98.4767 4.62962C98.2266 4.37658 98.0227 4.08606 97.8838 3.74868C97.7355 3.42067 97.6707 3.07392 97.6707 2.71779C97.6707 1.97743 97.9393 1.34015 98.486 0.787219C99.0048 0.262404 99.6348 0 100.376 0C100.737 0 101.089 0.065601 101.414 0.196805C101.738 0.328008 102.034 0.524816 102.285 0.777852C102.813 1.31204 103.081 1.95868 103.081 2.70842C103.081 3.44878 102.813 4.08606 102.285 4.62024C102.034 4.87328 101.747 5.07008 101.414 5.21066C101.089 5.35123 100.737 5.41684 100.376 5.41684C99.6348 5.42621 99.0048 5.1638 98.4767 4.62962ZM99.3939 25.4348C99.0882 25.3036 98.8195 25.1161 98.5879 24.8912C98.347 24.6663 98.1617 24.3945 98.0227 24.0759C97.8838 23.7666 97.8189 23.4386 97.8189 23.1106V9.50289C97.8189 9.17488 97.8838 8.84688 98.0227 8.53761C98.1617 8.22834 98.347 7.95656 98.5879 7.72227C98.8195 7.49735 99.0882 7.30991 99.4125 7.17871C99.7367 7.04751 100.061 6.98191 100.404 6.98191C100.728 6.98191 101.052 7.04751 101.358 7.17871C101.664 7.30991 101.933 7.49735 102.164 7.72227C102.386 7.94719 102.563 8.21897 102.683 8.52824C102.803 8.8375 102.859 9.15614 102.859 9.50289V23.1106C102.859 23.4386 102.794 23.7666 102.664 24.0759C102.535 24.3851 102.349 24.6569 102.127 24.8912C101.905 25.1161 101.636 25.3036 101.33 25.4348C101.025 25.566 100.71 25.6316 100.367 25.6316C100.024 25.6316 99.6997 25.566 99.3939 25.4348Z" fill="#EB573F"/>
<path d="M109.326 25.2281C109.02 25.0969 108.752 24.9188 108.52 24.6939C108.279 24.469 108.094 24.1972 107.955 23.888C107.816 23.5787 107.751 23.2601 107.751 22.932V2.84849C107.751 2.17373 108.011 1.58331 108.529 1.08661C108.752 0.852316 109.02 0.683625 109.335 0.552421C109.641 0.421218 109.965 0.36499 110.308 0.36499C111.012 0.36499 111.605 0.608653 112.087 1.09598C112.55 1.59268 112.782 2.1831 112.782 2.85786L112.763 13.0636L118.276 7.93733C118.758 7.48748 119.304 7.27194 119.916 7.27194C120.259 7.27194 120.583 7.33754 120.889 7.46874C121.194 7.59995 121.472 7.78737 121.713 8.01229C121.954 8.26533 122.14 8.54648 122.278 8.86512C122.417 9.18376 122.482 9.5024 122.482 9.84915C122.492 10.1772 122.436 10.4958 122.297 10.8051C122.158 11.1143 121.963 11.3861 121.713 11.6298L117.118 15.8939L122.788 21.1327C123.242 21.5544 123.464 22.0792 123.464 22.6978C123.464 23.0445 123.4 23.3725 123.27 23.6912C123.14 24.0098 122.955 24.3003 122.732 24.5534C122.232 25.0969 121.648 25.3781 120.991 25.3781C120.296 25.3781 119.684 25.125 119.138 24.6096L112.754 18.7054V22.9508C112.754 23.2975 112.689 23.6162 112.569 23.9255C112.439 24.2347 112.263 24.4971 112.041 24.7127C111.559 25.2 110.985 25.4343 110.299 25.4343C109.956 25.4249 109.632 25.3593 109.326 25.2281Z" fill="#EB573F"/>
<path d="M132.451 24.9193C131.339 24.4413 130.348 23.7665 129.496 22.9043C128.643 22.0515 127.976 21.0581 127.495 19.9241C127.013 18.7902 126.772 17.5906 126.772 16.3348C126.772 15.0696 127.013 13.87 127.495 12.736C127.976 11.5927 128.643 10.5899 129.496 9.72771C130.348 8.86552 131.339 8.19075 132.451 7.71279C133.563 7.23484 134.749 7.00055 135.99 7.00055C137.223 7.00055 138.399 7.23484 139.511 7.70343C140.623 8.17201 141.605 8.8374 142.448 9.69022C143.291 10.5337 143.958 11.5083 144.44 12.6329C144.922 13.7575 145.181 14.9384 145.209 16.1848V23.0449C145.209 23.7665 144.959 24.3851 144.468 24.8818C144.227 25.1254 143.949 25.3129 143.634 25.4441C143.319 25.5753 142.985 25.6409 142.633 25.6409C142.17 25.6409 141.753 25.5378 141.392 25.3222C141.031 25.1161 140.743 24.8162 140.512 24.4319C139.085 25.2379 137.575 25.6315 135.981 25.6315C134.749 25.6315 133.572 25.3972 132.451 24.9193ZM137.621 20.2053C138.14 19.9897 138.585 19.6898 138.964 19.3056C139.354 18.912 139.659 18.4621 139.872 17.9467C140.086 17.4406 140.197 16.8971 140.197 16.3254C140.197 15.7537 140.086 15.2102 139.872 14.7041C139.659 14.198 139.354 13.7388 138.964 13.3452C138.585 12.961 138.14 12.6611 137.621 12.4455C137.102 12.23 136.565 12.1175 136 12.1175C135.444 12.1175 134.916 12.23 134.406 12.4455C133.897 12.6611 133.452 12.961 133.072 13.3452C132.683 13.7388 132.377 14.1886 132.155 14.7041C131.932 15.2102 131.821 15.7537 131.821 16.3254C131.821 16.8971 131.932 17.4406 132.155 17.9467C132.377 18.4528 132.683 18.912 133.072 19.3056C133.452 19.6898 133.897 19.9897 134.406 20.2053C134.916 20.4208 135.444 20.5333 136 20.5333C136.565 20.5239 137.102 20.4208 137.621 20.2053Z" fill="#EB573F"/>
</svg>
