<?xml version="1.0" encoding="UTF-8"?>
<svg viewBox="0 0 26 26" xmlns="http://www.w3.org/2000/svg">
<path d="m18.688 2.8438h-4.0625v-0.8125c0-0.21549 0.0856-0.42215 0.238-0.57452 0.1523-0.15238 0.359-0.23798 0.5745-0.23798h2.4375c0.2155 0 0.4222 0.0856 0.5745 0.23798 0.1524 0.15237 0.238 0.35903 0.238 0.57452v0.8125z" fill="#E64D2E"/>
<path d="m12.594 8.5312h8.125v5.6876h-8.125v-5.6876z" fill="#E64D2E"/>
<path d="m20.719 7.4185v1.1128h-8.125v-1.1128c0-0.33341 0.1025-0.65875 0.2937-0.93189l2.55-3.6428h2.4375l2.55 3.6428c0.1912 0.27314 0.2937 0.59848 0.2938 0.93189z" fill="#474F54"/>
<path d="m18.281 23.562c0 0.6731-0.7275 1.2187-1.625 1.2187-0.8974 0-1.625-0.5456-1.625-1.2187 0 0.3232-0.1284 0.6332-0.3569 0.8618-0.2286 0.2285-0.5386 0.3569-0.8618 0.3569s-0.6332-0.1284-0.8618-0.3569c-0.2285-0.2286-0.3569-0.5386-0.3569-0.8618l0.4062-6.5-0.4062-2.8437h8.125l-0.4063 2.8437 0.4063 6.5c0 0.3232-0.1285 0.6332-0.357 0.8618-0.2286 0.2285-0.5386 0.3569-0.8618 0.3569s-0.6332-0.1284-0.8618-0.3569c-0.2285-0.2286-0.357-0.5386-0.357-0.8618z" fill="#474F54"/>
<path d="m12.594 13.406v-1.625h-6.5v1.625l-0.8125 1.625v8.125l0.8125 1.625h6.5l0.8124-1.625v-8.125l-0.8124-1.625z" fill="#C7CFE1"/>
<path d="m12.594 13.406h-0.8126c-0.1077 0-0.211-0.0428-0.2872-0.1189-0.0762-0.0762-0.119-0.1796-0.119-0.2873s0.0428-0.2111 0.119-0.2873c0.0762-0.0761 0.1795-0.1189 0.2872-0.1189h0.8126v0.8124z" fill="#C3C6C7"/>
<path d="m6.0938 12.594h4.0624c0.1078 0 0.2111 0.0428 0.2873 0.1189 0.0762 0.0762 0.119 0.1796 0.119 0.2873s-0.0428 0.2111-0.119 0.2873c-0.0762 0.0761-0.1795 0.1189-0.2873 0.1189h-4.0624v-0.8124z" fill="#C3C6C7"/>
<path d="m5.2812 15.031h8.125v8.125h-8.125v-8.125z" fill="#E64D2E"/>
<path d="m10.39 23.156c0.7142-1.2593 1.3914-2.4374 1.3914-4.4687 0-1.2756-0.4362-2.4912-0.8961-3.6563h-1.625c0.45992 1.1651 0.89614 2.3807 0.89614 3.6563 0 2.0313-0.67733 3.2094-1.3914 4.4687h1.625z" fill="#DFE7F4"/>
</svg>
