<svg width="24" height="24" viewBox="0 0 24 24" fill="none" xmlns="http://www.w3.org/2000/svg">
<path d="M21.9531 12C21.9531 12.591 21.6071 13.124 21.1141 13.61C20.8191 13.9 20.4751 14.178 20.1721 14.46C19.9301 14.685 19.7121 14.906 19.6101 15.152C19.5031 15.409 19.4961 15.728 19.5051 16.065C19.5161 16.481 19.5611 16.92 19.5641 17.33C19.5701 18.021 19.4411 18.634 19.0381 19.038C18.6341 19.441 18.0211 19.57 17.3301 19.564C16.9201 19.56 16.4811 19.516 16.0661 19.505C15.7291 19.496 15.4091 19.503 15.1521 19.61C14.9061 19.712 14.6851 19.93 14.4601 20.172C14.1781 20.475 13.9001 20.819 13.6101 21.113C13.1241 21.607 12.5911 21.953 12.0001 21.953C11.4091 21.953 10.8761 21.607 10.3901 21.113C10.1001 20.819 9.82212 20.475 9.54012 20.172C9.31512 19.93 9.09312 19.712 8.84812 19.61C8.59112 19.503 8.27112 19.496 7.93512 19.505C7.51912 19.516 7.08012 19.56 6.67012 19.564C5.97912 19.57 5.36512 19.441 4.96212 19.038C4.55812 18.634 4.43012 18.021 4.43612 17.33C4.43912 16.92 4.48412 16.481 4.49512 16.065C4.50412 15.728 4.49712 15.409 4.39012 15.151C4.28812 14.906 4.07012 14.685 3.82812 14.46C3.52612 14.178 3.18212 13.9 2.88712 13.61C2.39412 13.124 2.04712 12.591 2.04712 12C2.04712 11.409 2.39412 10.876 2.88712 10.39C3.18212 10.1 3.52612 9.822 3.82812 9.54C4.07012 9.315 4.28812 9.094 4.39012 8.849C4.49712 8.591 4.50412 8.272 4.49512 7.935C4.48412 7.519 4.43912 7.08 4.43612 6.67C4.43012 5.979 4.55812 5.366 4.96212 4.962C5.36512 4.559 5.97912 4.43 6.67012 4.436C7.08012 4.44 7.51912 4.484 7.93512 4.495C8.27112 4.504 8.59112 4.497 8.84812 4.39C9.09312 4.288 9.31512 4.07 9.54012 3.828C9.82212 3.525 10.1001 3.181 10.3901 2.887C10.8761 2.393 11.4091 2.047 12.0001 2.047C12.5911 2.047 13.1241 2.393 13.6101 2.887C13.9001 3.181 14.1781 3.525 14.4601 3.828C14.6851 4.07 14.9061 4.288 15.1521 4.39C15.4091 4.497 15.7291 4.504 16.0661 4.495C16.4811 4.484 16.9201 4.44 17.3301 4.436C18.0211 4.43 18.6341 4.559 19.0381 4.962C19.4411 5.366 19.5701 5.979 19.5641 6.67C19.5611 7.08 19.5161 7.519 19.5051 7.935C19.4961 8.272 19.5031 8.591 19.6101 8.848C19.7121 9.094 19.9301 9.315 20.1721 9.54C20.4751 9.822 20.8191 10.1 21.1141 10.39C21.6071 10.876 21.9531 11.409 21.9531 12ZM20.9531 12C20.9531 11.812 20.8651 11.645 20.7471 11.482C20.5831 11.256 20.3591 11.045 20.1251 10.836C19.5421 10.315 18.9201 9.796 18.6861 9.232C18.4441 8.647 18.5091 7.833 18.5501 7.054C18.5671 6.739 18.5771 6.432 18.5351 6.159C18.5061 5.968 18.4551 5.794 18.3311 5.67C18.2061 5.545 18.0321 5.494 17.8411 5.465C17.5681 5.423 17.2611 5.433 16.9461 5.45C16.1671 5.491 15.3531 5.556 14.7691 5.314C14.2041 5.08 13.6851 4.459 13.1641 3.875C12.9551 3.641 12.7441 3.417 12.5181 3.253C12.3551 3.135 12.1881 3.047 12.0001 3.047C11.8131 3.047 11.6451 3.135 11.4821 3.253C11.2561 3.417 11.0451 3.641 10.8361 3.875C10.3151 4.459 9.79612 5.08 9.23112 5.314C8.64712 5.556 7.83312 5.491 7.05412 5.45C6.73912 5.433 6.43212 5.423 6.15912 5.465C5.96712 5.494 5.79412 5.545 5.66912 5.67C5.54412 5.794 5.49412 5.968 5.46512 6.159C5.42312 6.432 5.43312 6.739 5.44912 7.054C5.49112 7.833 5.55612 8.647 5.31412 9.231C5.08012 9.796 4.45912 10.315 3.87512 10.836C3.64112 11.045 3.41712 11.256 3.25312 11.482C3.13512 11.645 3.04712 11.812 3.04712 12C3.04712 12.188 3.13512 12.355 3.25312 12.518C3.41712 12.744 3.64112 12.955 3.87512 13.164C4.45912 13.685 5.08012 14.204 5.31412 14.769C5.55612 15.353 5.49112 16.167 5.44912 16.946C5.43312 17.261 5.42312 17.568 5.46512 17.841C5.49412 18.032 5.54412 18.206 5.66912 18.33C5.79412 18.455 5.96712 18.506 6.15912 18.535C6.43212 18.577 6.73912 18.567 7.05412 18.55C7.83312 18.509 8.64712 18.444 9.23112 18.686C9.79612 18.92 10.3151 19.541 10.8361 20.125C11.0451 20.359 11.2561 20.583 11.4821 20.747C11.6451 20.865 11.8131 20.953 12.0001 20.953C12.1881 20.953 12.3551 20.865 12.5181 20.747C12.7441 20.583 12.9551 20.359 13.1641 20.125C13.6851 19.541 14.2041 18.92 14.7691 18.686C15.3531 18.444 16.1671 18.509 16.9461 18.55C17.2611 18.567 17.5681 18.577 17.8411 18.535C18.0321 18.506 18.2061 18.455 18.3311 18.33C18.4551 18.206 18.5061 18.032 18.5351 17.841C18.5771 17.568 18.5671 17.261 18.5501 16.946C18.5091 16.167 18.4441 15.353 18.6861 14.768C18.9201 14.204 19.5421 13.685 20.1251 13.164C20.3591 12.955 20.5831 12.744 20.7471 12.518C20.8651 12.355 20.9531 12.188 20.9531 12ZM10.4221 10.238C10.3278 10.3322 10.2159 10.4069 10.0927 10.4579C9.96957 10.5089 9.83756 10.5351 9.70427 10.535C9.57097 10.535 9.43898 10.5087 9.31585 10.4576C9.19272 10.4066 9.08084 10.3318 8.98662 10.2375C8.8924 10.1432 8.81767 10.0313 8.7667 9.90811C8.71573 9.78494 8.68952 9.65294 8.68957 9.51964C8.68961 9.38635 8.71591 9.25436 8.76697 9.13123C8.81802 9.00809 8.89283 8.89622 8.98712 8.802C9.17755 8.6117 9.43576 8.50485 9.70497 8.50495C9.97418 8.50504 10.2323 8.61207 10.4226 8.8025C10.6129 8.99292 10.7198 9.25114 10.7197 9.52035C10.7196 9.78956 10.6125 10.0477 10.4221 10.238ZM14.8931 8.4C14.9874 8.30892 15.1137 8.25852 15.2448 8.25966C15.3759 8.2608 15.5013 8.31338 15.594 8.40609C15.6867 8.49879 15.7393 8.6242 15.7405 8.7553C15.7416 8.8864 15.6912 9.0127 15.6001 9.107L9.10712 15.6C9.01282 15.6911 8.88652 15.7415 8.75542 15.7403C8.62432 15.7392 8.49891 15.6866 8.40621 15.5939C8.31351 15.5012 8.26092 15.3758 8.25978 15.2447C8.25864 15.1136 8.30904 14.9873 8.40012 14.893L14.8931 8.4ZM13.5781 13.763C13.6724 13.6688 13.7843 13.594 13.9075 13.5431C14.0307 13.4921 14.1627 13.4659 14.296 13.4659C14.4293 13.466 14.5613 13.4923 14.6844 13.5433C14.8075 13.5944 14.9194 13.6692 15.0136 13.7635C15.1078 13.8578 15.1826 13.9697 15.2335 14.0929C15.2845 14.216 15.3107 14.3481 15.3107 14.4814C15.3106 14.6146 15.2843 14.7466 15.2333 14.8698C15.1822 14.9929 15.1074 15.1048 15.0131 15.199C14.8227 15.3893 14.5645 15.4961 14.2953 15.496C14.0261 15.496 13.7679 15.3889 13.5776 15.1985C13.3873 15.0081 13.2805 14.7499 13.2806 14.4806C13.2807 14.2114 13.3877 13.9533 13.5781 13.763Z" fill="black"/>
</svg>
