<svg width="26" height="26" viewBox="0 0 26 26" fill="none" xmlns="http://www.w3.org/2000/svg">
<g clip-path="url(#clip0_79_1146)">
<path d="M21.1008 13.1828L18.6328 12.284C18.5566 12.2535 18.4652 12.2383 18.3739 12.2383H2.56055C2.13393 12.2383 1.79883 12.5734 1.79883 13V23.7149C1.79883 24.9793 2.81948 26 4.08399 26H19.3184C20.5829 26 21.6036 24.9793 21.6036 23.7149V13.8988C21.6036 13.5789 21.4055 13.2895 21.1008 13.1828Z" fill="#FC1A40"/>
<path d="M21.6035 13.8988V23.7149C21.6035 24.9793 20.5829 26 19.3184 26H11.7012V12.2383H18.3738C18.4652 12.2383 18.5567 12.2535 18.6328 12.284L21.1007 13.1828C21.4054 13.2895 21.6035 13.5789 21.6035 13.8988Z" fill="#C60034"/>
<path d="M21.3297 4.9658C21.0707 3.91462 20.2937 3.09202 19.2425 2.75681C18.2066 2.43684 17.0944 2.6654 16.2871 3.3966L14.5198 4.95056L14.1695 2.61975C14.0019 1.55334 13.3164 0.654461 12.2957 0.227948C12.0977 0.151725 11.8996 0.0907877 11.7016 0.0603189C10.8637 -0.10726 9.99531 0.0755533 9.29448 0.593574C8.36518 1.26389 7.89296 2.39123 8.04525 3.51853C8.21288 4.64587 8.9746 5.60564 10.0562 5.9865L11.7016 6.58064L13.7277 7.32713C13.743 7.32713 13.743 7.32713 13.743 7.32713L17.2621 8.622C17.6125 8.74393 17.9781 8.80492 18.3285 8.80492C19.0751 8.80492 19.8063 8.5306 20.3852 8.01268C21.2382 7.25096 21.6039 6.07786 21.3297 4.9658Z" fill="#FE9923"/>
<path d="M20.3848 8.01268C19.8059 8.5306 19.0746 8.80492 18.3281 8.80492C17.9777 8.80492 17.6121 8.74393 17.2617 8.62201L13.7426 7.32713C13.7426 7.32713 13.7426 7.32713 13.7273 7.32713L11.7012 6.58065V0.0602722C11.8992 0.0907918 12.0973 0.151679 12.2953 0.227901C13.316 0.654414 14.0016 1.55329 14.1691 2.6197L14.5194 4.95052L16.2867 3.39656C17.094 2.66536 18.2062 2.43679 19.2421 2.75676C20.2933 3.09197 21.0703 3.91458 21.3293 4.96575C21.6035 6.07786 21.2379 7.25096 20.3848 8.01268Z" fill="#FE8821"/>
<path d="M24.2092 11.8878L23.1732 14.7519C23.0513 15.0566 22.7618 15.2394 22.4572 15.2394C22.3658 15.2394 22.2743 15.2241 22.1982 15.1937L14.322 12.3297L13.606 9.96833L11.7017 10.3948L10.026 10.7757L2.14975 7.91164C1.75365 7.75935 1.55566 7.3175 1.69272 6.93664L2.74389 4.07267C2.94194 3.49376 3.36855 3.03663 3.91699 2.7777C4.46543 2.51876 5.08999 2.48824 5.6689 2.70152L11.7018 4.89528L12.1132 5.04757C12.1132 5.04757 13.7584 8.03356 13.8042 8.03356C13.8347 8.03356 14.4897 7.66794 15.1296 7.3175C15.7693 6.96711 16.4092 6.60153 16.4092 6.60153L22.838 8.94758C23.4169 9.16086 23.874 9.58747 24.1329 10.1359C24.392 10.6843 24.4224 11.309 24.2092 11.8878Z" fill="#FF3E75"/>
<path d="M24.2086 11.8877L23.1727 14.7518C23.0508 15.0565 22.7613 15.2393 22.4566 15.2393C22.3652 15.2393 22.2738 15.224 22.1977 15.1936L14.3214 12.3296L13.6055 9.96823L11.7012 10.3947V4.89517L12.1126 5.04747C12.1126 5.04747 13.7578 8.03346 13.8036 8.03346C13.8341 8.03346 14.4891 7.66783 15.129 7.31739C15.7687 6.967 16.4086 6.60142 16.4086 6.60142L22.8375 8.94747C23.4164 9.16075 23.8734 9.58737 24.1323 10.1358C24.3914 10.6842 24.4219 11.3089 24.2086 11.8877Z" fill="#FC1A40"/>
<path d="M9.41602 12.2383V26.0001H13.9863V12.2383H9.41602Z" fill="#FCBF29"/>
<path d="M12.1125 5.04755L11.7011 6.17489L10.0254 10.7757L11.7011 11.3852L13.6054 12.0707L14.3214 12.3296L16.4086 6.60151L12.1125 5.04755Z" fill="#FCBF29"/>
<path d="M13.9858 12.2383H11.7007V26.0001H13.9858V12.2383Z" fill="#FE9923"/>
<path d="M16.4086 6.60151L14.3214 12.3296L13.6055 12.0707L11.7012 11.3851V6.17489L12.1125 5.04755L16.4086 6.60151Z" fill="#FE9923"/>
</g>
<defs>
<clipPath id="clip0_79_1146">
<rect width="26" height="26" fill="white"/>
</clipPath>
</defs>
</svg>
