<svg width="11" height="11" viewBox="0 0 11 11" fill="none" xmlns="http://www.w3.org/2000/svg">
<path d="M1.37933 6.00001V10.1379H5.00002V6.00001H1.37933ZM5.51726 6.00001V10.1379H9.13795V6.00001H5.51726ZM9.65519 6.00001V10.6552H0.86209V6.00001H0.344849V2.89656H1.91468L1.89657 2.63794C1.89643 2.24208 2.02605 1.85709 2.26558 1.54192C2.5051 1.22674 2.84133 0.998768 3.22278 0.892903C3.60422 0.787038 4.00985 0.809118 4.37755 0.955763C4.74525 1.10241 5.05474 1.36553 5.25864 1.70484C5.46254 1.36553 5.77204 1.10241 6.13974 0.955763C6.50743 0.809118 6.91306 0.787038 7.29451 0.892903C7.67595 0.998768 8.01218 1.22674 8.2517 1.54192C8.49123 1.85709 8.62085 2.24208 8.62071 2.63794L8.60261 2.89656H10.1724V6.00001H9.65519ZM0.86209 3.41381V5.48277H5.00002V3.41381H0.86209ZM9.65519 5.48277V3.41381H5.51726V5.48277H9.65519ZM8.07761 2.89656L8.10347 2.63794C8.10347 2.29499 7.96723 1.96609 7.72473 1.72358C7.48222 1.48108 7.15332 1.34484 6.81037 1.34484C6.46741 1.34484 6.13851 1.48108 5.896 1.72358C5.6535 1.96609 5.51726 2.29499 5.51726 2.63794V2.89656H8.07761ZM5.00002 2.89656V2.63794C5.00002 2.29499 4.86378 1.96609 4.62128 1.72358C4.37878 1.48108 4.04987 1.34484 3.70692 1.34484C3.36397 1.34484 3.03506 1.48108 2.79256 1.72358C2.55005 1.96609 2.41381 2.29499 2.41381 2.63794L2.43968 2.89656H5.00002Z" fill="white"/>
</svg>
