<svg width="25" height="25" viewBox="0 0 25 25" fill="none" xmlns="http://www.w3.org/2000/svg">
<path d="M12.375 0.75C15.5244 0.75 18.5449 2.00111 20.7719 4.22811C22.9989 6.4551 24.25 9.47555 24.25 12.625C24.25 15.7744 22.9989 18.7949 20.7719 21.0219C18.5449 23.2489 15.5244 24.5 12.375 24.5C9.22555 24.5 6.2051 23.2489 3.97811 21.0219C1.75111 18.7949 0.5 15.7744 0.5 12.625C0.5 9.47555 1.75111 6.4551 3.97811 4.22811C6.2051 2.00111 9.22555 0.75 12.375 0.75V0.75ZM12.375 2C9.55707 2 6.85456 3.11942 4.86199 5.11199C2.86942 7.10456 1.75 9.80707 1.75 12.625C1.75 15.4429 2.86942 18.1454 4.86199 20.138C6.85456 22.1306 9.55707 23.25 12.375 23.25C15.1929 23.25 17.8954 22.1306 19.888 20.138C21.8806 18.1454 23 15.4429 23 12.625C23 9.80707 21.8806 7.10456 19.888 5.11199C17.8954 3.11942 15.1929 2 12.375 2ZM11.75 7V9.5H13V7H11.75ZM11.75 12V18.25H13V12H11.75Z" fill="#464141"/>
</svg>
