<svg width="29" height="17" viewBox="0 0 29 17" fill="none" xmlns="http://www.w3.org/2000/svg">
<path d="M9.15789 9.27273V7.72727H19.8421V9.27273H9.15789ZM20.6053 0C22.8317 0 24.9669 0.895533 26.5412 2.48959C28.1156 4.08365 29 6.24566 29 8.5C29 10.7543 28.1156 12.9163 26.5412 14.5104C24.9669 16.1045 22.8317 17 20.6053 17H16.7895V15.4545H20.6053C22.4269 15.4545 24.1739 14.7218 25.462 13.4176C26.75 12.1134 27.4737 10.3445 27.4737 8.5C27.4737 6.65554 26.75 4.88662 25.462 3.58239C24.1739 2.27816 22.4269 1.54545 20.6053 1.54545H16.7895V0H20.6053ZM8.39474 17C6.16831 17 4.03308 16.1045 2.45876 14.5104C0.884443 12.9163 0 10.7543 0 8.5C0 6.24566 0.884443 4.08365 2.45876 2.48959C4.03308 0.895533 6.16831 0 8.39474 0H12.2105V1.54545H8.39474C6.57312 1.54545 4.82611 2.27816 3.53803 3.58239C2.24995 4.88662 1.52632 6.65554 1.52632 8.5C1.52632 10.3445 2.24995 12.1134 3.53803 13.4176C4.82611 14.7218 6.57312 15.4545 8.39474 15.4545H12.2105V17H8.39474Z" fill="#EB573F"/>
</svg>
