<svg width="19" height="25" viewBox="0 0 19 25" fill="none" xmlns="http://www.w3.org/2000/svg">
<path d="M3.75 0.75H15C15.9946 0.75 16.9484 1.14509 17.6517 1.84835C18.3549 2.55161 18.75 3.50544 18.75 4.5V20.75C18.75 21.7446 18.3549 22.6984 17.6517 23.4017C16.9484 24.1049 15.9946 24.5 15 24.5H3.75C2.75544 24.5 1.80161 24.1049 1.09835 23.4017C0.395088 22.6984 0 21.7446 0 20.75V4.5C0 3.50544 0.395088 2.55161 1.09835 1.84835C1.80161 1.14509 2.75544 0.75 3.75 0.75ZM3.75 2C3.08696 2 2.45107 2.26339 1.98223 2.73223C1.51339 3.20107 1.25 3.83696 1.25 4.5V20.75C1.25 21.413 1.51339 22.0489 1.98223 22.5178C2.45107 22.9866 3.08696 23.25 3.75 23.25H15C15.663 23.25 16.2989 22.9866 16.7678 22.5178C17.2366 22.0489 17.5 21.413 17.5 20.75V4.5C17.5 3.83696 17.2366 3.20107 16.7678 2.73223C16.2989 2.26339 15.663 2 15 2H3.75ZM3.75 3.25H15C15.3315 3.25 15.6495 3.3817 15.8839 3.61612C16.1183 3.85054 16.25 4.16848 16.25 4.5V19.5C16.25 19.8315 16.1183 20.1495 15.8839 20.3839C15.6495 20.6183 15.3315 20.75 15 20.75H3.75C3.41848 20.75 3.10054 20.6183 2.86612 20.3839C2.6317 20.1495 2.5 19.8315 2.5 19.5V4.5C2.5 4.16848 2.6317 3.85054 2.86612 3.61612C3.10054 3.3817 3.41848 3.25 3.75 3.25ZM3.75 4.5V19.5H15V4.5H3.75ZM6.25 7H12.5V8.25H6.25V7ZM6.25 10.75H12.5V12H6.25V10.75ZM6.25 14.5H10V15.75H6.25V14.5Z" fill="#383838"/>
</svg>
