<svg width="18" height="20" viewBox="0 0 18 20" fill="none" xmlns="http://www.w3.org/2000/svg">
<path d="M13.8715 7.95989C13.2417 7.88179 12.6704 8.32295 12.5953 8.94354C12.5202 9.56201 12.9727 10.1298 13.6025 10.2079C14.2322 10.286 14.8036 9.84487 14.8787 9.22428C14.9517 8.60369 14.5012 8.03588 13.8715 7.95989ZM13.6901 9.47125C13.4607 9.44381 13.296 9.24539 13.321 9.03219C13.346 8.81689 13.5545 8.66702 13.7818 8.69446C14.0112 8.7219 14.1759 8.92032 14.1509 9.13351C14.1259 9.34882 13.9195 9.49869 13.6901 9.47125Z" fill="#EB573F"/>
<path d="M12.4203 12.4391C12.3452 13.0597 12.7977 13.6254 13.4274 13.7035C14.0572 13.7816 14.6286 13.3404 14.7036 12.7198C14.7787 12.0992 14.3262 11.5335 13.6964 11.4554C13.0667 11.3773 12.4953 11.8185 12.4203 12.4391ZM13.978 12.6312C13.9529 12.8465 13.7444 12.9963 13.5171 12.9689C13.2877 12.9415 13.123 12.743 13.148 12.5298C13.173 12.3145 13.3816 12.1647 13.6089 12.1921C13.8382 12.2196 14.003 12.4159 13.978 12.6312Z" fill="#EB573F"/>
<path d="M10.6352 8.58886C10.0054 8.51075 9.43404 8.95192 9.35897 9.57251C9.2839 10.1931 9.73641 10.7588 10.3662 10.8369C10.9959 10.915 11.5673 10.4738 11.6424 9.85325C11.7153 9.23477 11.2649 8.66696 10.6352 8.58886ZM10.4537 10.1023C10.2244 10.0749 10.0596 9.87647 10.0847 9.66327C10.1097 9.44797 10.3182 9.2981 10.5455 9.32554C10.7728 9.35298 10.9396 9.5514 10.9146 9.76459C10.8896 9.97779 10.681 10.1298 10.4537 10.1023Z" fill="#EB573F"/>
<path d="M6.71277 7.90915C6.73961 7.88804 6.76025 7.86481 6.77883 7.83948C6.75818 7.8627 6.73548 7.88593 6.71277 7.90915Z" fill="#EB573F"/>
<path d="M7.56566 10.2121C5.62009 8.90552 4.57745 7.37727 4.04779 6.32396C4.01651 6.26275 3.98732 6.20153 3.95812 6.14032C3.72666 6.34718 3.5077 6.56882 3.30334 6.80523C3.9477 8.05907 5.08626 9.61053 7.08188 10.9509C9.1192 12.3187 10.5664 13.8217 11.3838 15.4196C11.7195 16.0781 11.9385 16.7431 12.0407 17.3995C12.3159 17.2307 12.5787 17.0449 12.8268 16.8423C12.6934 16.2301 12.4702 15.618 12.1616 15.0122C11.2733 13.2771 9.7281 11.6623 7.56566 10.2121Z" fill="#EB573F"/>
<path d="M1.80823 13.0807C1.94586 13.6359 2.14813 14.1742 2.41296 14.6787C2.47135 14.7188 2.52974 14.7589 2.59021 14.799C4.04156 15.7742 5.19264 16.8169 6.03092 17.9146C6.45632 18.0792 6.89632 18.1995 7.34257 18.2776C6.42504 16.7642 4.99245 15.3478 3.07399 14.0602C2.59855 13.7457 2.17941 13.4143 1.80823 13.0807Z" fill="#EB573F"/>
<path d="M9.23386 17.5705C9.35898 17.8153 9.46741 18.0602 9.55917 18.3071C9.84902 18.2628 10.1368 18.1995 10.4225 18.1172C10.3078 17.7984 10.1722 17.4797 10.0096 17.1652C9.12334 15.4301 7.57815 13.8153 5.41571 12.3651C3.6745 11.1957 2.65897 9.85112 2.08343 8.82526C1.93955 9.19043 1.82486 9.57038 1.74353 9.95878C2.42959 10.9846 3.44095 12.1034 4.93193 13.1039C6.96925 14.4675 8.41643 15.9704 9.23386 17.5705Z" fill="#EB573F"/>
<path d="M11.2817 3.2569C11.0752 3.46798 10.8688 3.67695 10.6624 3.88804C10.8062 3.93025 10.9501 3.97458 11.0919 4.02524C11.2921 3.82049 11.4923 3.61785 11.6946 3.4131C11.559 3.35822 11.4214 3.30545 11.2817 3.2569Z" fill="#EB573F"/>
<path d="M13.5234 4.4453C13.4462 4.38831 13.369 4.33342 13.2919 4.27854C13.1063 4.46641 12.9228 4.65427 12.7372 4.84214C13.0625 5.05744 13.3711 5.30019 13.661 5.56615C15.5211 7.2886 16.4678 9.79416 16.1758 12.3356C16.0111 13.6485 15.5336 14.9193 14.7578 15.9895C13.2856 18.0222 10.9022 19.2444 8.40816 19.2127C5.91207 19.181 3.49106 17.8892 2.10435 15.7763C0.700952 13.6401 0.369392 10.8939 1.32237 8.4981C2.24615 6.17196 4.2501 4.39675 6.6586 3.79516C7.26959 3.64318 7.89518 3.57141 8.52076 3.57352C8.76891 3.32022 9.01706 3.06903 9.26521 2.81573C7.09026 2.61731 5.01957 3.27378 3.39097 4.51707C3.13239 4.71549 2.88216 4.92657 2.64652 5.15454C2.1252 5.65481 1.66644 6.22473 1.28275 6.84743C1.06796 7.19783 0.876116 7.56511 0.709293 7.94929C0.386074 8.69652 0.165035 9.50286 0.0628558 10.3514C0.0378324 10.5583 0.0211502 10.763 0.0107238 10.9678C-0.0163849 11.506 0.00863842 12.0359 0.0774527 12.553C0.57375 16.2385 3.40973 19.2908 7.17575 19.8924C7.27585 19.9093 7.37803 19.9241 7.48021 19.9367C7.70333 19.9642 7.92437 19.9832 8.14333 19.9916C8.75223 20.0191 9.3507 19.9789 9.9325 19.8776C10.2244 19.827 10.5101 19.7615 10.7916 19.6813C11.2087 19.5631 11.6132 19.4132 12.0053 19.2338C12.3347 19.0818 12.6538 18.9109 12.9603 18.7188C15.0894 17.3911 16.6263 15.1304 16.9495 12.4264C17.3311 9.23479 15.9235 6.22684 13.5234 4.4453Z" fill="#EB573F"/>
<path d="M6.04766 6.70389C5.88084 6.87487 5.81203 7.11762 5.97259 7.32448C6.10605 7.49757 6.41884 7.57145 6.58567 7.40047C8.39569 5.55771 10.2057 3.71706 12.0137 1.8743C12.3682 1.51335 12.7227 1.1545 13.0751 0.79355C13.2419 0.622572 13.3107 0.379826 13.1501 0.172964C13.0167 -0.000124759 12.7039 -0.0740041 12.5371 0.0969738C10.727 1.93973 8.91701 3.78038 7.10907 5.62315C6.75457 5.9841 6.40216 6.34505 6.04766 6.70389Z" fill="#EB573F"/>
<path d="M7.64703 8.14768C7.4802 8.31866 7.41139 8.5614 7.57196 8.76827C7.70542 8.94135 8.01821 9.01523 8.18503 8.84426C9.99506 7.0015 11.8051 5.16085 13.613 3.31808C13.9675 2.95713 14.322 2.59829 14.6744 2.23734C14.8413 2.06636 14.9101 1.82361 14.7495 1.61675C14.616 1.44366 14.3032 1.36978 14.1364 1.54076C12.3264 3.38352 10.5164 5.22417 8.70844 7.06693C8.35602 7.42577 8.00152 7.78673 7.64703 8.14768Z" fill="#EB573F"/>
</svg>
