<?xml version="1.0" encoding="UTF-8"?>
<svg fill="none" viewBox="0 0 26 26" xmlns="http://www.w3.org/2000/svg">
<g clip-path="url(#a)">
<path d="m13.025 13h-12.683c-0.20273 0.2266-0.30806 0.5277-0.28902 0.831 0.25648 4.0609 2.4067 7.7467 5.7668 9.9884 0.24319 0.1623 0.55304 0.2303 0.86248 0.1655 0 2e-4 0 4e-4 2e-4 6e-4l6.3423-10.986z" fill="#FFA000"/>
<path d="m6.6823 2.0146c0 1.9e-4 0 1.9e-4 -1.9e-4 3.9e-4 -0.29715-0.06228-0.60997-0.00277-0.86229 0.16564-3.3571 2.2399-5.5102 5.9242-5.7668 9.9884-0.019043 0.3033 0.086289 0.6044 0.28902 0.831h12.683l-6.3425-10.985z" fill="#FFA000"/>
<path d="m19.367 2.0146c-0.0942-0.28822-0.3009-0.52963-0.5719-0.66412-3.6265-1.8-7.9115-1.8013-11.541 0-0.27116 0.13449-0.47766 0.3759-0.57188 0.66412l6.3423 10.985 6.3425-10.985z" fill="#FFA000"/>
<path d="m6.6826 23.985c0.09422 0.2882 0.30072 0.5296 0.57188 0.6641 3.6263 1.7997 7.9116 1.8013 11.541 0 0.5878-0.2916 0.804-1.0236 0.4761-1.5919l-5.5871-9.6768-0.6596-0.3809-6.3423 10.986z" fill="#FFA000"/>
<path d="m25.997 12.169c-0.2563-4.0611-2.4067-7.7467-5.7666-9.9884-0.2523-0.16841-0.5652-0.22792-0.8625-0.16564 0-2e-4 -2e-4 -3.9e-4 -2e-4 -3.9e-4l-6.3425 10.985 0.6596 0.3809h11.172c0.658 0 1.1821-0.5562 1.1406-1.2118z" fill="#FFA000"/>
<path d="m10.408 13-5.7444 9.9498c0.36935 0.3112 0.75557 0.602 1.1567 0.8696 0.24319 0.1623 0.55304 0.2303 0.86229 0.1655 2e-4 2e-4 2e-4 4e-4 2e-4 6e-4l6.3425-10.986h-2.6172z" fill="#F57C00"/>
<path d="m6.6823 2.0146c0 1.9e-4 0 1.9e-4 -1.9e-4 3.9e-4 -0.29715-0.06228-0.60997-0.00277-0.86229 0.16564-0.11724 0.07815-0.23269 0.15869-0.34714 0.24081l5.5213 9.5631h-10.927c-0.0047607 0.0615-0.010513 0.123-0.01448 0.1845-0.019043 0.3033 0.086289 0.6044 0.28902 0.831h12.683l-6.3425-10.985z" fill="#F57C00"/>
<path d="m18.796 1.3505c-0.5306-0.26323-1.0733-0.48738-1.6264-0.67385 0.0719 0.097397 0.1294 0.2057 0.1675 0.32234l-5.6203 9.7345 1.3086 2.2665 6.3425-10.985c-0.0942-0.28822-0.3009-0.52963-0.5719-0.66412z" fill="#F57C00"/>
<path d="m19.272 23.058-5.5872-9.677-0.6595-0.3809-0.5025 0.8703 4.7183 8.172c0.3279 0.5681 0.1115 1.3001-0.4761 1.5918-3.2061 1.5913-6.8082 1.7219-9.9146 0.6739 0.10553 0.143 0.24319 0.2616 0.40446 0.3416 1.8027 0.8948 3.7443 1.3485 5.7706 1.3485s3.9676-0.4537 5.7704-1.3485c0.5877-0.2916 0.8039-1.0236 0.4761-1.5917z" fill="#F57C00"/>
<path d="m25.997 12.169c-0.2563-4.0611-2.4067-7.7467-5.7666-9.9884-0.2523-0.16841-0.5652-0.22792-0.8625-0.16564 0-2e-4 -2e-4 -3.9e-4 -2e-4 -3.9e-4l-0.0117 0.02023c2.7491 2.3165 4.3884 5.6066 4.6102 9.1188 0.0412 0.6554-0.4826 1.2116-1.1408 1.2116h-9.4336l-0.3666 0.6347 0.6596 0.3809h11.172c0.658 0 1.1821-0.5562 1.1406-1.2118z" fill="#F57C00"/>
<path d="m2.5 13c0 0.6294-0.14679 1.2638-0.04165 1.8633 0.10791 0.6163 0.46437 1.1624 0.67364 1.7372 0.21305 0.5854 0.29279 1.2321 0.60065 1.7641 0.31084 0.5372 0.83273 0.9283 1.2295 1.4007 0.39792 0.4734 0.69328 1.0551 1.1668 1.4528 0.47231 0.3967 1.0956 0.5873 1.6325 0.898l5.2632-9.1161h-10.525z" fill="#FFE082"/>
<path d="m10.408 13-4.5747 7.9239c0.09184 0.1051 0.18944 0.2045 0.29616 0.2942 0.4723 0.3967 1.0956 0.5873 1.6325 0.898l5.2632-9.1161h-2.6172z" fill="#FFCA28"/>
<path d="m7.7617 22.116c0.53023 0.3062 1.0073 0.7541 1.5933 0.9674 0.57506 0.2093 1.2253 0.1749 1.8418 0.2829 0.5994 0.1051 1.1987 0.3614 1.8281 0.3614 0.6296 0 1.2289-0.2563 1.8283-0.3614 0.6164-0.108 1.2668-0.0736 1.8419-0.2829 0.289-0.1053 0.5514-0.2674 0.8069-0.4418 0.4404-0.3001 0.577-0.8871 0.3106-1.3486-1.2945-2.2424-4.7877-8.2931-4.7877-8.2931l-5.2632 9.1161z" fill="#FFE082"/>
<path d="m13.025 13-0.7222 1.2511 3.9546 6.8495c-0.6675 0.4109-1.049 0.7693-1.5931 0.9675-0.5751 0.2092-1.2255 0.1749-1.842 0.2828-0.5995 0.105-1.1987 0.3614-1.8281 0.3614-0.6295 0-1.2287-0.2564-1.8282-0.3614-0.41279-0.0722-0.84086-0.0809-1.2511-0.1416 0.47211 0.2991 0.91148 0.6818 1.4401 0.8742 0.57505 0.2093 1.2255 0.1749 1.842 0.2831 0.5992 0.1049 1.1985 0.3612 1.8281 0.3612 0.6294 0 1.2287-0.2563 1.8281-0.3612 0.6164-0.1082 1.2668-0.0738 1.8418-0.2831 0.2891-0.1051 0.5515-0.2674 0.807-0.4416 0.4404-0.3003 0.5772-0.8873 0.3108-1.3486-1.2947-2.2426-4.7879-8.2933-4.7879-8.2933z" fill="#FFCA28"/>
<path d="m7.7614 3.884c-0.53697 0.31064-1.1602 0.50127-1.6325 0.89799-0.47369 0.39772-0.76906 0.97933-1.1668 1.453-0.39673 0.47231-0.91882 0.86348-1.2295 1.4004-0.30786 0.53202-0.3876 1.1789-0.60065 1.7641-0.20927 0.57506-0.56573 1.1209-0.67364 1.7372-0.10514 0.5995 0.04165 1.2339 0.04165 1.8633h10.525l-5.2632-9.116z" fill="#FFE082"/>
<path d="m7.7617 3.884c-0.35884 0.20749-0.75616 0.36182-1.1214 0.55958l3.4743 6.0178c0.3908 0.677-0.0978 1.5233-0.87952 1.5233h-6.8001c0.02301 0.3356 0.06526 0.6762 0.06526 1.0154h10.525l-5.2632-9.116z" fill="#FFCA28"/>
<path d="m16.695 2.9165c-0.5751-0.20927-1.2255-0.17495-1.8419-0.28286-0.5994-0.10514-1.1987-0.36142-1.8283-0.36142-0.6294 0-1.2286 0.25628-1.8281 0.36142-0.6163 0.10791-1.2668 0.07359-1.8418 0.28286-0.58517 0.21305-1.0608 0.65937-1.5929 0.96723-2e-4 0-2e-4 2e-4 -2e-4 2e-4l5.263 9.116 5.2632-9.116-2e-4 -2e-4c-0.532-0.30786-1.0077-0.75418-1.5928-0.96723z" fill="#FFE082"/>
<path d="m18.288 3.8838c-0.532-0.30786-1.0077-0.75418-1.5928-0.96723-0.1308-0.0476-0.2657-0.08192-0.4029-0.1087l-4.5759 7.9257 1.3086 2.2665 5.2632-9.116-2e-4 -2e-4z" fill="#FFCA28"/>
<path d="m22.781 13c0.4237 0 0.777-0.3243 0.8131-0.7469 0.0326-0.3788 0.0611-0.7539-0.0023-1.1164-0.108-0.6163-0.4646-1.1624-0.6739-1.7372-0.213-0.58538-0.2926-1.232-0.6004-1.7642-0.3109-0.53698-0.8328-0.92815-1.2295-1.4005-0.3979-0.47369-0.6933-1.0551-1.167-1.4528-0.4721-0.39672-1.0953-0.58735-1.6325-0.89799l-5.2632 9.116h5.1281v2.5418c-2e-4 0.5197 0.4211 0.9409 0.9408 0.9409 0.6011 0 0.9988-0.4618 0.9988-0.9698v-0.3494c0-0.3336 0.2706-0.604 0.6042-0.604 0.3337 0 0.6042 0.2704 0.6042 0.604v2.7143c0 0.4086 0.3313 0.7399 0.7397 0.7399 0.4087 0 0.7399-0.3313 0.7399-0.7399v-4.8778z" fill="#FFE082"/>
<path d="m23.591 11.137c-0.108-0.6163-0.4646-1.1624-0.6739-1.7372-0.213-0.58538-0.2926-1.232-0.6004-1.7642-0.3109-0.53698-0.8328-0.92815-1.2295-1.4005-0.3979-0.47369-0.6933-1.0551-1.167-1.4528-0.4721-0.39672-1.0953-0.58735-1.6325-0.89799l-0.102 0.17674c0.3156 0.36083 0.5624 0.79187 0.8705 1.1586 0.3967 0.4723 0.9188 0.86348 1.2294 1.4004 0.3079 0.53201 0.3876 1.1789 0.6007 1.764 0.2092 0.57506 0.5659 1.121 0.6738 1.7375 1e-3 6e-3 2e-3 0.0119 3e-3 0.0181 0.1614 0.9682-0.6011 1.8452-1.5826 1.8452h-6.3696l-0.5864 1.0154h7.7249v1.5621c0.3088 0.0268 0.5512 0.2856 0.5512 0.6014v2.7145c0 0.4086 0.3313 0.7397 0.7397 0.7397 0.4087 0 0.7399-0.3313 0.7399-0.7397v-4.878c0.4235 0 0.777-0.3243 0.8131-0.7469 0.0326-0.3788 0.0611-0.7539-0.0023-1.1164z" fill="#FFCA28"/>
<path d="m13.402 20.318c0 0.8337-0.6758 1.5093-1.5093 1.5093-0.8338 0-1.5096-0.6756-1.5096-1.5093s0.6758-1.5094 1.5096-1.5094c0.8335 0 1.5093 0.6757 1.5093 1.5094z" fill="#EF5350"/>
<path d="m8.6955 17.924c0 0.8337-0.67563 1.5096-1.5094 1.5096-0.83372 0-1.5094-0.6759-1.5094-1.5096 0-0.8335 0.67563-1.5093 1.5094-1.5093 0.83373 0 1.5094 0.6758 1.5094 1.5093z" fill="#EF5350"/>
<path d="m9.9374 10.149c0 0.8337-0.67582 1.5095-1.5096 1.5095-0.83353 0-1.5094-0.6758-1.5094-1.5095 0-0.83357 0.67582-1.5094 1.5094-1.5094 0.83373 0 1.5096 0.67582 1.5096 1.5094z" fill="#EF5350"/>
<path d="m13.107 5.0345c0 0.83373-0.6758 1.5096-1.5096 1.5096-0.8337 0-1.5093-0.67582-1.5093-1.5096 0-0.83352 0.6756-1.5094 1.5093-1.5094 0.8338 0 1.5096 0.67583 1.5096 1.5094z" fill="#EF5350"/>
<path d="m19.737 6.9029c0 0.41676-0.338 0.75478-0.7548 0.75478-0.4167 0-0.7548-0.33802-0.7548-0.75478 0-0.41696 0.3381-0.75478 0.7548-0.75478 0.4168 0 0.7548 0.33782 0.7548 0.75478z" fill="#FF6F00"/>
<path d="m17.308 10.822c0 0.4168-0.3378 0.7548-0.7548 0.7548-0.4168 0-0.7546-0.338-0.7546-0.7548 0-0.4167 0.3378-0.7547 0.7546-0.7547 0.417 0 0.7548 0.338 0.7548 0.7547z" fill="#FF6F00"/>
<path d="m16.423 4.6385c0 0.41696-0.3378 0.75478-0.7547 0.75478-0.4168 0-0.7546-0.33782-0.7546-0.75478 0-0.41676 0.3378-0.75458 0.7546-0.75458 0.4169 0 0.7547 0.33782 0.7547 0.75458z" fill="#FF6F00"/>
<path d="m13.779 8.8145c0 0.41676-0.3378 0.75457-0.7548 0.75457-0.4168 0-0.7546-0.33781-0.7546-0.75457 0-0.41697 0.3378-0.75478 0.7546-0.75478 0.417 0 0.7548 0.33781 0.7548 0.75478z" fill="#FF6F00"/>
<path d="m5.3223 11.127c0 0.4168-0.33781 0.7546-0.75477 0.7546-0.41677 0-0.75458-0.3378-0.75458-0.7546 0-0.4169 0.33781-0.7547 0.75458-0.7547 0.41696 0 0.75477 0.3378 0.75477 0.7547z" fill="#FF6F00"/>
<path d="m9.657 14.707c0 0.417-0.33801 0.7548-0.75477 0.7548-0.41696 0-0.75478-0.3378-0.75478-0.7548 0-0.4167 0.33782-0.7546 0.75478-0.7546 0.41676 0 0.75477 0.3379 0.75477 0.7546z" fill="#FF6F00"/>
<path d="m7.91 6.3321c-0.11684-0.4001-0.53598-0.6296-0.93608-0.51257-0.4001 0.11684-0.62961 0.53598-0.51277 0.93608 0.11703 0.4001 0.53617 0.62961 0.93627 0.51257 0.4001-0.11683 0.62961-0.53597 0.51258-0.93608z" fill="#FF6F00"/>
<path d="m5.5943 15.264c0 0.417-0.33781 0.7548-0.75457 0.7548-0.41696 0-0.75478-0.3378-0.75478-0.7548 0-0.4167 0.33782-0.7548 0.75478-0.7548 0.41676 0 0.75457 0.3381 0.75457 0.7548z" fill="#FF6F00"/>
<path d="m16.224 21.073c0 0.4168-0.338 0.7548-0.7548 0.7548-0.4167 0-0.7547-0.338-0.7547-0.7548 0-0.4169 0.338-0.7548 0.7547-0.7548 0.4168 0 0.7548 0.3379 0.7548 0.7548z" fill="#FF6F00"/>
<path d="m13.779 16.774c0 0.4167-0.3378 0.7548-0.7548 0.7548-0.4168 0-0.7546-0.3381-0.7546-0.7548 0-0.417 0.3378-0.7548 0.7546-0.7548 0.417 0 0.7548 0.3378 0.7548 0.7548z" fill="#FF6F00"/>
<path d="m21.775 10.251c0 0.8337-0.6759 1.5096-1.5094 1.5096-0.8337 0-1.5095-0.6759-1.5095-1.5096 0-0.8335 0.6758-1.5093 1.5095-1.5093 0.8335 0 1.5094 0.67583 1.5094 1.5093z" fill="#EF5350"/>
<path d="m12.206 18.842c0.1147 0.2126 0.1798 0.456 0.1798 0.7149 0 0.9577-0.8822 1.6757-1.8236 1.4764 0.2549 0.4729 0.7546 0.7944 1.3296 0.7944 0.8338 0 1.5094-0.6756 1.5094-1.5093 0-0.7258-0.5124-1.3318-1.1952-1.4764z" fill="#D32F2F"/>
<path d="m7.5003 16.448c0.11465 0.2128 0.17972 0.4562 0.17972 0.7149 0 0.8335-0.67583 1.5094-1.5094 1.5094-0.10771 0-0.21284-0.0116-0.3142-0.033 0.25489 0.4731 0.75457 0.7947 1.3296 0.7947 0.83373 0 1.5094-0.6759 1.5094-1.5096 0-0.7258-0.51237-1.3318-1.1951-1.4764z" fill="#D32F2F"/>
<path d="m8.742 8.6728c0.11465 0.21284 0.17992 0.45623 0.17992 0.7149 0 0.83376-0.67583 1.5094-1.5096 1.5094-0.10771 0-0.21284-0.0115-0.31421-0.0329 0.2549 0.4731 0.75478 0.7946 1.3296 0.7946 0.83373 0 1.5096-0.6758 1.5096-1.5095 0-0.72585-0.51257-1.3319-1.1953-1.4765z" fill="#D32F2F"/>
<path d="m11.911 3.558c0.1147 0.21284 0.1799 0.45623 0.1799 0.7149 0 0.83353-0.6758 1.5094-1.5095 1.5094-0.1077 0-0.2129-0.01151-0.3142-0.03293 0.2549 0.4731 0.7548 0.79464 1.3296 0.79464 0.8337 0 1.5096-0.67582 1.5096-1.5096 0-0.72581-0.5126-1.3318-1.1954-1.4764z" fill="#D32F2F"/>
<path d="m20.579 8.7744c0.1146 0.21284 0.1799 0.45624 0.1799 0.7149 0 0.8335-0.6758 1.5094-1.5095 1.5094-0.1078 0-0.2127-0.0115-0.3143-0.033 0.2549 0.4731 0.7548 0.7947 1.3299 0.7947 0.8335 0 1.5093-0.6759 1.5093-1.5096 0-0.72579-0.5123-1.3318-1.1953-1.4764z" fill="#D32F2F"/>
</g>
<defs>
<clipPath id="a">
<rect width="26" height="26" fill="#fff"/>
</clipPath>
</defs>
</svg>
