<svg width="25" height="25" viewBox="0 0 25 25" fill="none" xmlns="http://www.w3.org/2000/svg">
<path d="M17.525 23.3988C17.1768 23.747 16.7633 24.0233 16.3083 24.2118C15.8533 24.4003 15.3656 24.4973 14.8731 24.4973C14.3806 24.4973 13.8929 24.4003 13.4379 24.2118C12.9829 24.0233 12.5695 23.747 12.2212 23.3988L1.8175 13.245C1.0625 12.56 0.5 11.5375 0.5 10.4375V4.5C0.5 3.50544 0.895088 2.55161 1.59835 1.84835C2.30161 1.14509 3.25544 0.75 4.25 0.75H10.1875C11.2875 0.75 12.31 1.31375 12.995 2.0675L23.0862 12.5338C23.7893 13.237 24.1842 14.1906 24.1842 15.185C24.1842 16.1794 23.7893 17.133 23.0862 17.8363L17.5237 23.3988H17.525ZM16.64 22.515L22.2025 16.9525C22.6712 16.4837 22.9345 15.8479 22.9345 15.185C22.9345 14.5221 22.6712 13.8863 22.2025 13.4175L11.89 2.73C11.47 2.24625 10.8775 2 10.1875 2L4.21625 1.96625C2.8375 1.96625 1.75 3.11875 1.75 4.5V10.4375C1.75 11.1275 1.99625 11.72 2.48 12.14L13.105 22.515C13.5738 22.9837 14.2096 23.247 14.8725 23.247C15.5354 23.247 16.1712 22.9837 16.64 22.515ZM6.125 3.25C6.9538 3.25 7.74866 3.57924 8.33471 4.16529C8.92076 4.75134 9.25 5.5462 9.25 6.375C9.25 7.2038 8.92076 7.99866 8.33471 8.58471C7.74866 9.17076 6.9538 9.5 6.125 9.5C5.2962 9.5 4.50134 9.17076 3.91529 8.58471C3.32924 7.99866 3 7.2038 3 6.375C3 5.5462 3.32924 4.75134 3.91529 4.16529C4.50134 3.57924 5.2962 3.25 6.125 3.25ZM6.125 4.5C5.62772 4.5 5.1508 4.69754 4.79917 5.04917C4.44754 5.40081 4.25 5.87772 4.25 6.375C4.25 6.87228 4.44754 7.34919 4.79917 7.70083C5.1508 8.05246 5.62772 8.25 6.125 8.25C6.62228 8.25 7.09919 8.05246 7.45082 7.70083C7.80246 7.34919 8 6.87228 8 6.375C8 5.87772 7.80246 5.40081 7.45082 5.04917C7.09919 4.69754 6.62228 4.5 6.125 4.5Z" fill="#383838"/>
</svg>
