<svg width="48" height="48" viewBox="0 0 48 48" fill="none" xmlns="http://www.w3.org/2000/svg">
<path d="M23.9999 16.5C22.0108 16.5 20.1031 17.2902 18.6966 18.6967C17.2901 20.1032 16.4999 22.0109 16.4999 24C16.4999 25.9891 17.2901 27.8968 18.6966 29.3033C20.1031 30.7098 22.0108 31.5 23.9999 31.5C25.989 31.5 27.8967 30.7098 29.3032 29.3033C30.7097 27.8968 31.4999 25.9891 31.4999 24C31.4999 22.0109 30.7097 20.1032 29.3032 18.6967C27.8967 17.2902 25.989 16.5 23.9999 16.5ZM18.9999 24C18.9999 22.6739 19.5267 21.4021 20.4644 20.4644C21.4021 19.5268 22.6738 19 23.9999 19C25.326 19 26.5978 19.5268 27.5354 20.4644C28.4731 21.4021 28.9999 22.6739 28.9999 24C28.9999 25.3261 28.4731 26.5978 27.5354 27.5355C26.5978 28.4732 25.326 29 23.9999 29C22.6738 29 21.4021 28.4732 20.4644 27.5355C19.5267 26.5978 18.9999 25.3261 18.9999 24ZM19.4939 43.468C20.9729 43.821 22.4869 43.999 24.0069 43.999C25.5236 43.9974 27.0349 43.8182 28.5099 43.465C28.8977 43.3716 29.2473 43.161 29.511 42.8618C29.7748 42.5626 29.9399 42.1894 29.9839 41.793L30.3219 38.722C30.379 38.1728 30.6303 37.662 31.0305 37.2816C31.4307 36.9012 31.9535 36.6762 32.5049 36.647C32.8719 36.631 33.2369 36.7 33.5729 36.847L36.3799 38.078C36.624 38.1877 36.8883 38.2453 37.1559 38.247C37.4235 38.2488 37.6885 38.1946 37.9339 38.088C38.1809 37.983 38.4019 37.827 38.5839 37.63C40.6479 35.4053 42.1887 32.7475 43.0939 29.851C43.2124 29.4667 43.2087 29.0552 43.0834 28.6731C42.958 28.291 42.7171 27.9573 42.3939 27.718L39.8999 25.878C39.6029 25.6622 39.3611 25.3792 39.1944 25.0521C39.0277 24.725 38.9408 24.3631 38.9408 23.996C38.9408 23.6288 39.0277 23.2669 39.1944 22.9398C39.3611 22.6127 39.6029 22.3297 39.8999 22.114L42.3859 20.278C42.7099 20.0382 42.9514 19.7037 43.0768 19.3206C43.2022 18.9375 43.2054 18.5249 43.0859 18.14C42.1805 15.243 40.6377 12.5857 38.5709 10.363C38.2971 10.0703 37.9391 9.86981 37.5465 9.7892C37.1539 9.7086 36.7459 9.75185 36.3789 9.91298L33.5729 11.149C33.2829 11.28 32.9669 11.349 32.6469 11.349C32.0709 11.3478 31.5156 11.1341 31.0875 10.7488C30.6593 10.3635 30.3885 9.83367 30.3269 9.26098L29.9869 6.20098C29.9434 5.79935 29.7754 5.42138 29.5064 5.11997C29.2375 4.81855 28.881 4.60877 28.4869 4.51998C27.0193 4.19234 25.5216 4.0184 24.0179 4.00098C22.504 4.01845 20.9959 4.19271 19.5179 4.52098C19.1243 4.60926 18.7681 4.81837 18.4991 5.11905C18.2302 5.41974 18.0619 5.79697 18.0179 6.19798L17.6779 9.25998C17.6138 9.83359 17.3403 10.3634 16.9099 10.748C16.4707 11.1211 15.917 11.3328 15.3409 11.348C15.0232 11.3478 14.7089 11.2817 14.4179 11.154L11.6179 9.91798C11.2497 9.7554 10.84 9.71157 10.4457 9.79257C10.0514 9.87358 9.6922 10.0754 9.41792 10.37C7.35397 12.5932 5.81307 15.2496 4.90792 18.145C4.78834 18.5298 4.79149 18.9422 4.91692 19.3252C5.04235 19.7081 5.28385 20.0425 5.60792 20.282L8.09592 22.118C8.54037 22.4465 8.85446 22.9214 8.98273 23.459C9.111 23.9966 9.04518 24.5622 8.79692 25.056C8.63182 25.3834 8.39203 25.6674 8.09692 25.885L5.60692 27.724C5.28313 27.9632 5.0418 28.2973 4.91638 28.6798C4.79095 29.0624 4.78765 29.4745 4.90692 29.859C5.81047 32.7571 7.3515 35.4162 9.41692 37.641C9.68977 37.9354 10.0477 38.1374 10.4408 38.2188C10.8339 38.3002 11.2426 38.2569 11.6099 38.095L14.4279 36.858C14.7189 36.73 15.0329 36.664 15.3509 36.664H15.3589C15.9328 36.6647 16.4863 36.8765 16.9141 37.2589C17.3419 37.6414 17.6141 38.1678 17.6789 38.738L18.0169 41.795C18.0609 42.192 18.2264 42.5657 18.4908 42.8651C18.7551 43.1645 19.1054 43.3751 19.4939 43.468ZM27.5579 41.123C25.2179 41.623 22.7979 41.623 20.4579 41.123L20.1539 38.461C20.0217 37.2798 19.4594 36.1885 18.5741 35.3955C17.6888 34.6024 16.5425 34.1629 15.3539 34.161H15.3439C14.681 34.1583 14.0249 34.2945 13.4179 34.561L10.9719 35.634C9.38519 33.8443 8.17453 31.7539 7.41192 29.487L9.57692 27.887C10.187 27.4371 10.6829 26.8502 11.0247 26.1736C11.3665 25.497 11.5445 24.7495 11.5445 23.9915C11.5445 23.2334 11.3665 22.486 11.0247 21.8094C10.6829 21.1327 10.187 20.5459 9.57692 20.096L7.41292 18.496C8.17697 16.2316 9.3879 14.1437 10.9739 12.356L13.4059 13.428C14.0139 13.6976 14.6718 13.8363 15.3369 13.835H15.3469C16.5383 13.8325 17.6871 13.3916 18.5743 12.5963C19.4614 11.801 20.0248 10.707 20.1569 9.52298L20.4569 6.86298C21.6301 6.62789 22.8225 6.50202 24.0189 6.48698C25.2059 6.50198 26.3889 6.62698 27.5529 6.86198L27.8529 9.52098C27.9812 10.705 28.542 11.8 29.4278 12.596C30.3136 13.3921 31.462 13.8333 32.6529 13.835C33.3246 13.8508 33.9908 13.7105 34.5989 13.425L37.0289 12.354C38.6159 14.1415 39.8272 16.2299 40.5909 18.495L38.4339 20.088C37.8195 20.5358 37.3195 21.1225 36.9748 21.8003C36.6302 22.478 36.4505 23.2276 36.4505 23.988C36.4505 24.7483 36.6302 25.4979 36.9748 26.1757C37.3195 26.8534 37.8195 27.4401 38.4339 27.888L40.5989 29.488C39.8344 31.752 38.6239 33.8397 37.0389 35.628L34.5989 34.558C33.9043 34.2498 33.1466 34.1102 32.3878 34.1507C31.6289 34.1911 30.8904 34.4104 30.2324 34.7907C29.5745 35.171 29.0158 35.7014 28.6019 36.3387C28.188 36.9761 27.9307 37.7022 27.8509 38.458L27.5579 41.123Z" fill="black"/>
</svg>
