<?xml version="1.0" encoding="UTF-8"?>
<svg fill="none" viewBox="0 0 26 26" xmlns="http://www.w3.org/2000/svg">
<g clip-path="url(#a)">
<path d="m21.739 12.111v2.089c0 1.9244-1.5662 3.4907-3.4912 3.4907h-5.2556l-1.1351-5.0952 1.1351-5.6046h4.1627l4.5841 5.1201z" fill="#F6EBD8"/>
<path d="m12.993 6.9905v10.7h-5.2556c-1.925 0-3.4912-1.5663-3.4912-3.4907v-2.4176l5.6648-4.7915h3.082z" fill="#FFFDF5"/>
<path d="m26 10.101-2.1379 3.2069c-1.0264-0.7523-2.1169-1.3927-3.2482-1.9132 0 0-0.3599-0.6262-0.5839-0.7187-0.2498-0.1031-0.8383 0.1354-0.8383 0.1354-0.6258-0.2263-1.2607-0.4168-1.901-0.5702 0 0-0.4135-0.61314-0.6629-0.66134-0.2579-0.04988-0.8585 0.36843-0.8585 0.36843-0.7836-0.11413-1.5708-0.17237-2.3553-0.17237h-0.4214l-0.4086-1.9362 0.4086-2.5873c0.4079 0 0.8149 0.01259 1.2204 0.03766 0 0 0.9901 0.68004 1.3736 0.72656 0.3383 0.04107 0.7922-0.4714 0.7922-0.4714 0.7876 0.13757 1.567 0.32334 2.3351 0.5569 0 0 1.0414 0.82388 1.2319 0.88823 0.4897 0.16529 0.7865-0.15275 0.7865-0.15275 1.4899 0.63674 2.8939 1.4545 4.189 2.441l1.0787 0.82236z" fill="#FF415B"/>
<path d="m12.993 5.2526v4.3667l-0.618 0.15673h-0.0576c-0.6567 0-1.3097 0.03684-1.9567 0.1097 0 0-0.5929-0.55084-0.82733-0.51466-0.27391 0.04229-0.6963 0.75523-0.6963 0.75523-0.6799 0.1385-1.3504 0.3177-2.0081 0.5364 0 0-0.60122-0.232-0.85211-0.1354-0.24329 0.0937-0.63042 0.7051-0.63042 0.7051-0.8569 0.3751-1.6864 0.8208-2.4805 1.3347l-1.0053 0.6654-1.8419-3.1569 1.0455-0.79685c0.6078-0.46295 1.2395-0.88875 1.8929-1.2761 0 0 1.06 0.16217 1.289 0.03846 0.27178-0.14684 0.21609-0.84436 0.21609-0.84436 0.45994-0.22108 0.92879-0.42438 1.4059-0.60948 0 0 1.1219 0.19336 1.4012 0.0991 0.35844-0.12106 0.5116-0.73141 0.5116-0.73141 0.62701-0.17237 1.261-0.31325 1.9002-0.42239l1.6427 0.18521 0.6501-0.43895c0.3388-0.01747 0.6786-0.02624 1.019-0.02624z" fill="#FF7C48"/>
<path d="m25.985 16.162v0.7643c0 2.1069-1.7145 3.8214-3.8214 3.8214h-9.1712l-1.1351-2.2928 1.1351-2.2929h12.993z" fill="#04303E"/>
<path d="m12.993 16.162v4.5857h-9.1712c-2.1068 0-3.8214-1.7145-3.8214-3.8214v-0.7643h12.993z" fill="#005457"/>
<path d="m4.9201 7.522-0.45841-0.32527c-0.51318 0.2467-1.0148 0.51619-1.5046 0.80661l1.0766 0.76387c0.80488 0.57493 1.2848 1.4922 1.3122 2.465 0.48582-0.2127 0.98056-0.4025 1.4826-0.5694-0.17797-1.2465-0.85623-2.3894-1.9083-3.1408z" fill="#FFB89C"/>
<path d="m5.8682 6.5878c0.45413 0.20422 0.7842 0.43987 1.08 0.65137 0.11128 0.07953 0.21634 0.15468 0.32431 0.22607 0.99829 0.65982 1.5661 1.6454 1.5644 2.6614 0.50315-0.1026 1.0114-0.18281 1.5237-0.24054-0.0764-1.4389-0.88023-2.7939-2.2453-3.6961-0.08463-0.05595-0.17859-0.12315-0.27809-0.19428-0.01835-0.01315-0.03735-0.02665-0.05636-0.04025-0.36343 0.09991-0.72463 0.20976-1.083 0.33077-0.27927 0.09421-0.55573 0.19515-0.8297 0.30148z" fill="#FFB89C"/>
<path d="m13.908 9.7842c-0.1646-0.00509-0.3297-0.00815-0.4942-0.00815h-0.4214l-0.4086-1.257 0.4086-2.0839c0.6904 1.0358 1.0104 2.2047 0.9156 3.349z" fill="#FF936A"/>
<path d="m12.993 6.4352v3.3409h-0.618c0.136-1.1021-0.293-2.2393-1.2218-3.1926-0.267-0.27361-0.9538-0.81013-1.4985-1.0455 0.7734-0.13299 1.5545-0.2196 2.3402-0.25935 0.1019 0.09019 0.188 0.1712 0.2532 0.23795 0.2828 0.29042 0.532 0.59817 0.7449 0.91865z" fill="#FFB89C"/>
<path d="m17.29 10.242c0.4404-1.3155 0.2667-2.7941-0.5178-4.0564-0.0384-0.0618-0.0801-0.13038-0.1248-0.20396-0.0809-0.13293-0.171-0.28084-0.2692-0.43512-0.716-0.12509-1.4385-0.21115-2.1657-0.25614 0.4105 0.30418 0.8568 1.0381 1.1287 1.4853 0.0476 0.07821 0.0919 0.15112 0.1327 0.2168 0.5782 0.93022 0.6782 2.0225 0.2948 2.9562 0.5093 0.07428 1.0169 0.17258 1.5213 0.29338z" fill="#FF936A"/>
<path d="m18.714 6.1033c0.3265 0.4312 0.5772 1.2334 0.7176 1.6824l0.0392 0.12508c0.3148 0.99697 0.2071 2.0394-0.2788 2.9009 0.48 0.1736 0.9543 0.3688 1.4219 0.5839 0.6156-1.1924 0.7391-2.6004 0.3146-3.945l-0.0379-0.12091c-0.0468-0.14974-0.0991-0.31646-0.158-0.49153-0.4732-0.20222-0.9548-0.38662-1.4446-0.55195-0.1906-0.0643-0.382-0.12463-0.574-0.18297z" fill="#FF936A"/>
</g>
<defs>
<clipPath id="a">
<rect width="26" height="26" fill="#fff"/>
</clipPath>
</defs>
</svg>
