<svg width="13" height="17" viewBox="0 0 13 17" fill="none" xmlns="http://www.w3.org/2000/svg">
<path d="M11.9999 13.8333C11.9999 14.4964 11.7365 15.1323 11.2677 15.6011C10.7988 16.0699 10.163 16.3333 9.49992 16.3333H3.66658C3.00354 16.3333 2.36766 16.0699 1.89882 15.6011C1.42998 15.1323 1.16659 14.4964 1.16659 13.8333V3.83333H0.333252V1.33333H4.08325L4.91658 0.5H8.24992L9.08325 1.33333H12.8333V3.83333H11.9999V13.8333ZM1.99992 3.83333V13.8333C1.99992 14.2754 2.17551 14.6993 2.48807 15.0118C2.80063 15.3244 3.22456 15.5 3.66658 15.5H9.49992C9.94194 15.5 10.3659 15.3244 10.6784 15.0118C10.991 14.6993 11.1666 14.2754 11.1666 13.8333V3.83333H1.99992ZM11.9999 3V2.16667H8.66658L7.83325 1.33333H5.33325L4.49992 2.16667H1.16659V3H11.9999ZM3.66658 5.5H4.49992V13.8333H3.66658V5.5ZM8.66658 5.5H9.49992V13.8333H8.66658V5.5Z" fill="white"/>
</svg>
