<svg width="19" height="19" viewBox="0 0 19 19" fill="none" xmlns="http://www.w3.org/2000/svg">
<path d="M9.375 11.5C14.5525 11.5 18.75 13.4588 18.75 15.875V19H0V15.875C0 13.4588 4.1975 11.5 9.375 11.5ZM17.5 15.875C17.5 14.15 13.8625 12.75 9.375 12.75C4.8875 12.75 1.25 14.15 1.25 15.875V17.75H17.5V15.875ZM9.375 0.25C10.5353 0.25 11.6481 0.710936 12.4686 1.53141C13.2891 2.35188 13.75 3.46468 13.75 4.625C13.75 5.78532 13.2891 6.89812 12.4686 7.71859C11.6481 8.53906 10.5353 9 9.375 9C8.21468 9 7.10188 8.53906 6.28141 7.71859C5.46094 6.89812 5 5.78532 5 4.625C5 3.46468 5.46094 2.35188 6.28141 1.53141C7.10188 0.710936 8.21468 0.25 9.375 0.25ZM9.375 1.5C8.5462 1.5 7.75134 1.82924 7.16529 2.41529C6.57924 3.00134 6.25 3.7962 6.25 4.625C6.25 5.4538 6.57924 6.24866 7.16529 6.83471C7.75134 7.42076 8.5462 7.75 9.375 7.75C10.2038 7.75 10.9987 7.42076 11.5847 6.83471C12.1708 6.24866 12.5 5.4538 12.5 4.625C12.5 3.7962 12.1708 3.00134 11.5847 2.41529C10.9987 1.82924 10.2038 1.5 9.375 1.5V1.5Z" fill="#383838"/>
</svg>
